<?xml version="1.0" standalone="no"?>
<!DOCTYPE svg PUBLIC "-//W3C//DTD SVG 1.1//EN" "http://www.w3.org/Graphics/SVG/1.1/DTD/svg11.dtd" >
<svg>
<metadata>
Created by FontForge 20110222 at Tue Jun 11 00:41:40 2013
 By Ubuntu
Copyright (c) 1996, 1997 Brderbund Software.
</metadata>
<defs>
<font id="VarsityRegular" horiz-adv-x="602" >
  <font-face 
    font-family="Varsity Regular"
    font-weight="400"
    font-stretch="normal"
    units-per-em="1000"
    panose-1="0 0 4 0 0 0 0 0 0 0"
    ascent="800"
    descent="-200"
    x-height="623"
    cap-height="700"
    bbox="-73 -226 1357 970"
    underline-thickness="20"
    underline-position="-190"
    unicode-range="U+0020-F002"
  />
<missing-glyph horiz-adv-x="500" 
d="M63 0v863h375v-863h-375zM125 63h250v738h-250v-738z" />
    <glyph glyph-name=".notdef" horiz-adv-x="500" 
d="M63 0v863h375v-863h-375zM125 63h250v738h-250v-738z" />
    <glyph glyph-name=".null" horiz-adv-x="0" 
 />
    <glyph glyph-name="nonmarkingreturn" horiz-adv-x="282" 
 />
    <glyph glyph-name="space" unicode=" " horiz-adv-x="282" 
 />
    <glyph glyph-name="exclam" unicode="!" horiz-adv-x="262" 
d="M35 210v490h193v-490h-193zM35 0v158h193v-158h-193zM211 227v456h-159v-456h159zM211 17v124h-159v-124h159zM74 39v80h115v-80h-115zM74 249v412h115v-412h-115z" />
    <glyph glyph-name="quotedbl" unicode="&#x22;" horiz-adv-x="439" 
d="M186 700v-179l-126 -126v126h-53v179h179zM25 682v-144h52v-103l92 92v155h-144zM147 661v-123l-49 -49v71h-52v101h101zM386 700v-179l-126 -126v126h-53v179h179zM225 682v-144h52v-103l92 92v155h-144zM347 661v-124l-49 -49v72h-52v101h101z" />
    <glyph glyph-name="numbersign" unicode="#" horiz-adv-x="566" 
d="M551 516l-28 -130h-99l-17 -83h98l-26 -129h-100l-38 -175h-130l37 175h-7l-37 -175h-130l36 175h-98l25 129h101l18 83h-101l28 130h101l35 174h131l-36 -174h6l38 174h131l-38 -174h100zM529 499h-96l37 174h-100l-37 -174h-36l35 174h-101l-36 -174h-96l-21 -96h96
l-22 -117h-99l-20 -95h96l-37 -175h101l36 175h38l-38 -175h97l37 175h102l21 95h-100l26 117h96zM510 482l-14 -62h-99l-32 -150h99l-12 -62h-100l-38 -175h-62l37 175h-75l-37 -175h-62l36 175h-99l13 62h101l31 150h-100l13 62h101l36 175h62l-36 -175h74l38 175h62
l-37 -175h100zM335 420h-76l-31 -150h75zM269 303h7l17 83h-7zM247 286l24 117h43l-25 -117h-42z" />
    <glyph glyph-name="dollar" unicode="$" horiz-adv-x="629" 
d="M48 157v105h193v-67l22 -22h103l22 22v67l-22 23h-206l-112 113v146l111 111h57v45h90v-45h21v45h91v-45h51l112 -112v-109h-193v71l-22 22h-103l-22 -22v-71l23 -23h205l112 -112v-142l-112 -112h-51v-45h-90v45h-22v-45h-90v45h-56zM166 62h67v-45h56v45h56v-45h56v45
h62l99 99v133l-100 100h-202l-36 36v78l36 36h109l36 -36v-57h159v89l-98 98h-65v45h-57v-45h-55v45h-56v-45h-70l-98 -98v-139l99 -99h205l36 -36v-75l-36 -36h-109l-36 36v54h-159v-82zM87 176v48h115v-46l44 -44h137l44 44v102l-44 44h-203l-93 92v108l92 92h68v53h28
v-53h84v53h28v-53h63l92 -92v-51h-115v49l-44 44h-137l-44 -44v-106l44 -43h203l93 -92v-105l-92 -92h-63v-53h-28v53h-84v-53h-28v53h-67z" />
    <glyph glyph-name="percent" unicode="%" horiz-adv-x="1012" 
d="M35 286v343l70 70h212l70 -70v-343l-70 -70h-212zM282 0l350 700h95l-350 -700h-95zM109 233h204l57 57v335l-57 57h-204l-57 -57v-335zM368 17l333 666h-60l-332 -666h59zM108 310v296l50 50h108l48 -48v-298l-51 -51h-104zM344 39l312 622h8l-311 -622h-9zM161 276h100
l36 36v292l-35 35h-101l-36 -36v-291zM625 74v340l71 72h211l70 -71v-343l-69 -69h-212zM699 20h204l57 57v335l-57 57h-204l-57 -57v-335zM698 97v295l50 50h108l47 -47v-298l-51 -51h-103zM752 63h98l37 36v292l-35 35h-101l-36 -36v-291z" />
    <glyph glyph-name="ampersand" unicode="&#x26;" horiz-adv-x="629" 
d="M49 157v163l30 30l-30 30v164l111 111h76v45h158v-45h74l112 -112v-116h-192v49l-22 22h-103l-22 -22v-33l22 -22h87v-142h-87l-22 -22v-32l23 -23h101l23 23v34h192v-102l-112 -112h-74v-45h-158v45h-75zM163 62h90v-45h124v45h88l99 99v81h-159v-21l-36 -36h-109
l-36 36v40l35 35h74v105h-72l-37 37v41l36 36h113l32 -32v-39h158v96l-98 98h-88v45h-124v-45h-89l-99 -99v-155l34 -34l-34 -34v-156zM87 177v124l48 48l-48 48v127l93 92h87v53h95v-53h87l93 -93v-57h-115v29l-42 42h-139l-44 -44v-67l44 -44h66v-64h-66l-44 -44v-67
l44 -43h137l44 43v14h115v-45l-92 -92h-88v-53h-95v53h-87z" />
    <glyph glyph-name="quotesingle" unicode="'" horiz-adv-x="192" 
d="M186 700v-179l-126 -126v126h-53v179h179zM25 682v-144h52v-105l92 92v157h-144zM147 661v-123l-49 -49v71h-52v101h101z" />
    <glyph glyph-name="parenleft" unicode="(" horiz-adv-x="367" 
d="M278 791l83 -57q-17 -29 -26 -46q-46 -91 -59.5 -141.5t-18.5 -150.5q-1 -23 -1 -47t1 -47q5 -99 18.5 -149.5t59.5 -141.5q12 -24 26 -47l-84 -58q-16 14 -48 44q-102 106 -142 195q-38 86 -38 204t39 205.5t141 193.5q16 14 49 43zM245 739q-98 -98 -139 -186t-41 -204
q0 -120 32 -197q35 -83 130 -178q17 -18 50 -49l64 46q-8 13 -24 40q-47 99 -59.5 146t-17.5 145q-3 67 -2 94q5 99 18.5 149.5t58.5 139.5q10 20 25 43l-62 42q-9 -8 -33 -31zM279 741l34 -24q-7 -11 -21 -39q-43 -84 -56 -134t-18 -147q-2 -50 0 -99q7 -145 48 -231
q14 -29 47 -80l-34 -30q-12 10 -30 26q-162 146 -162 363q0 36 4 75q19 169 158 295q18 16 30 25z" />
    <glyph glyph-name="parenright" unicode=")" horiz-adv-x="367" 
d="M93 791l-83 -57q17 -29 26 -46q46 -91 59.5 -141.5t18.5 -150.5q1 -23 1 -47t-1 -47q-5 -99 -18.5 -149.5t-59.5 -141.5q-12 -24 -26 -47l84 -58q16 14 48 44q102 106 142 195q38 86 38 204t-39 205.5t-141 193.5q-16 14 -49 43zM126 739q98 -98 139 -186t41 -204
q0 -120 -32 -197q-35 -83 -130 -178q-17 -18 -50 -49l-64 46q8 13 24 40q47 99 59.5 146t17.5 145q3 67 2 94q-5 99 -18.5 149.5t-58.5 139.5q-10 20 -25 43l62 42q9 -8 33 -31zM92 741l-34 -24q7 -11 21 -39q43 -84 56 -134t18 -147q2 -50 0 -99q-7 -145 -48 -231
q-14 -29 -47 -80l34 -30q12 10 30 26q162 146 162 363q0 36 -4 75q-19 169 -158 295q-18 16 -30 25z" />
    <glyph glyph-name="asterisk" unicode="*" horiz-adv-x="405" 
d="M203 464l-74 -109l-73 51l79 100l-121 43l28 77l114 -41v126h94v-126l115 41l26 -78l-120 -43l78 -99l-73 -51zM159 512l-83 -103l49 -32l78 112l76 -115l51 36l-81 102l124 44l-19 52q-51 -19 -119 -44v130h-63v-131l-120 45l-19 -51zM50 567l8 24l128 -48v140h35v-140
l126 48l10 -24l-131 -48l85 -107l-28 -17l-80 112l-81 -112l-27 17l85 107z" />
    <glyph glyph-name="plus" unicode="+" horiz-adv-x="491" 
d="M325 117h-158v155h-154v157h154v154h158v-154h154v-157h-154v-155zM307 566h-123v-154h-155v-123h155v-156h123v156h155v123h-155v154zM286 156v154h155v81h-155v154h-81v-154h-153v-81h153v-154h81z" />
    <glyph glyph-name="comma" unicode="," horiz-adv-x="185" 
d="M7 0v179h179v-178l-129 -129q0 -1 0 128h-50zM75 17v-105l93 93v156h-144v-144h51zM46 39v101h101v-122l-50 -50v71h-51z" />
    <glyph glyph-name="hyphen" unicode="-" horiz-adv-x="282" 
d="M13 271v158h276v-158h-276zM272 289v123h-243v-123h243zM52 310v81h199v-81h-199z" />
    <glyph glyph-name="hyphen" unicode="&#x2010;" horiz-adv-x="282" 
d="M13 271v158h276v-158h-276zM272 289v123h-243v-123h243zM52 310v81h199v-81h-199z" />
    <glyph glyph-name="period" unicode="." horiz-adv-x="192" 
d="M7 0v179h179v-179h-179zM168 17v144h-144v-144h144zM46 39v101h101v-101h-101z" />
    <glyph glyph-name="slash" unicode="/" horiz-adv-x="556" 
d="M7 0l350 700h192l-350 -700h-192zM190 17l333 666h-155l-332 -666h154zM69 39l311 622h107l-312 -622h-106z" />
    <glyph glyph-name="zero" unicode="0" 
d="M-50 112v476l112 112h308l112 -112v-476l-112 -112h-308zM70 17h292l103 103v460l-103 103h-292l-103 -103v-460zM-11 131v438l92 92h269l94 -93v-437l-92 -92h-271zM149 119h135l43 43v376l-41 41h-139l-41 -41v-376zM126 176v348l35 35h110l35 -35v-348l-35 -35h-110z
M165 157h102l22 22v341l-22 22h-103l-22 -22v-340z" />
    <glyph glyph-name="one" unicode="1" horiz-adv-x="603" 
d="M126 0v157h88v302h-88v111l130 130h150v-543h70v-157h-350zM460 17v124h-70v542h-131l-116 -116v-91h88v-335h-88v-124h317zM165 39v80h88v378h-88v56l108 108h94v-542h70v-80h-272z" />
    <glyph glyph-name="two" unicode="2" 
d="M35 0v163l339 311v45l-23 23h-101l-23 -23v-70h-192v139l112 112h308l112 -112v-185l-222 -222h222v-181h-532zM551 17v147h-243l242 242v178l-99 99h-298l-101 -101v-116h159v58l33 33h115l32 -32v-53l-336 -312v-143h496zM74 39v108l339 312v79l-43 43h-138l-43 -43
v-50h-115v80l92 93h271l92 -92v-151l-275 -275h275v-104h-455z" />
    <glyph glyph-name="three" unicode="3" 
d="M35 112v102h192v-34l23 -23h102l22 22v68l-22 22h-87v162h89l20 21v68l-22 22h-103l-22 -22v-48h-192v116l112 112h308l112 -112v-208l-30 -30l30 -30v-208l-112 -112h-308zM151 17h300l99 99v200l-34 34l34 34v197l-102 102h-295l-101 -101v-94h159v36l35 35h110l34 -34
v-78l-33 -33h-75v-128h75l34 -35v-75l-35 -35h-110l-35 35v21h-159v-81zM75 131v45h114v-14l43 -43h137l44 44v101l-44 44h-66v84h66l44 44v101l-44 44h-137l-43 -43v-28h-115v58l93 93h270l92 -92v-172l-47 -47l47 -47v-172l-91 -91h-272z" />
    <glyph glyph-name="four" unicode="4" horiz-adv-x="603" 
d="M37 210v205l285 285h171v-333h73v-157h-73v-53h42v-157h-276v157h41v53h-263zM317 227v-86h-42v-124h243v124h-43v86h73v124h-73v332h-150l-271 -271v-185h263zM76 249v150l262 262h116v-332h73v-80h-73v-130h42v-80h-199v80h41v130h-262zM338 329v182l-147 -147v-35h147
zM213 351l104 104v-104h-104zM300 367v50l-50 -50h50z" />
    <glyph glyph-name="five" unicode="5" 
d="M35 112v124h192v-56l23 -23h102l22 22v123l-22 22h-205l-112 112v264h532v-158h-340v-39l23 -23h211l106 -106v-262l-112 -112h-308zM151 17h300l99 99v255l-92 92h-211l-36 36v60h339v124h-498v-243l99 -99h205l35 -34v-131l-35 -35h-110l-35 35v43h-159v-103zM74 131
v67h115v-36l43 -43h137l44 44v156l-43 43h-204l-92 92v207h455v-80h-340v-96l44 -44h211l85 -85v-224l-93 -93h-270z" />
    <glyph glyph-name="six" unicode="6" 
d="M35 112v476l112 112h308l112 -112v-115h-193v47l-22 22h-103l-22 -22v-100h228l112 -112v-196l-112 -112h-308zM151 17h300l99 99v188l-99 99h-240v121l35 35h110l35 -35v-33h159v93l-99 99h-300l-99 -99v-468zM74 131v438l92 92h271l92 -92v-57h-116v26l-43 43h-138
l-43 -43v-157h247l93 -93v-156l-93 -93h-270zM232 119h138l43 43v96l-43 43h-138l-43 -43v-96zM211 176v68l35 35h110l35 -35v-68l-35 -35h-110zM250 157h102l22 22v61l-22 22h-103l-22 -22v-60z" />
    <glyph glyph-name="seven" unicode="7" horiz-adv-x="603" 
d="M35 501v199h533v-135l-209 -565h-202l201 542h-166v-41h-157zM176 517v42h206l-201 -542h162l208 552v114h-499v-166h124zM74 539v122h455v-80l-199 -539h-116l199 539h-259v-42h-80z" />
    <glyph glyph-name="eight" unicode="8" 
d="M36 112v194l44 44l-44 44v194l112 112h306l112 -112v-194l-44 -44l44 -44v-194l-112 -112h-306zM152 17h298l99 99v186l-48 48l48 48v186l-99 99h-298l-99 -99v-186l47 -48l-47 -48v-186zM75 131v155l63 64l-63 64v155l92 92h268l92 -92v-155l-63 -64l63 -64v-155
l-92 -92h-268zM242 119h117l43 43v104l-43 43h-117l-43 -43v-104zM242 391h118l42 43v104l-42 43h-118l-43 -43v-104zM220 176v77l36 35h90l35 -35v-77l-35 -35h-91zM220 447v77l36 35h90l35 -35v-77l-35 -35h-90zM260 429h82l23 22v69l-23 22h-82l-23 -22v-69zM260 157h82
l23 23v69l-23 22h-82l-23 -22v-69z" />
    <glyph glyph-name="nine" unicode="9" 
d="M35 112v114h192v-46l23 -23h102l22 22v101h-227l-112 112v196l112 112h308l112 -112v-476l-112 -112h-308zM151 17h300l99 99v468l-99 99h-300l-99 -99v-188l99 -99h240v-121l-35 -35h-110l-35 35v33h-159v-93zM74 130v58h115v-26l43 -43h138l43 43v156h-247l-92 92v159
l92 92h270l93 -92v-439l-91 -91h-272zM232 399h137l44 44v95l-44 42h-137l-43 -42v-96zM211 456v68l35 35h110l35 -35v-68l-35 -35h-110zM250 437h102l22 23v60l-22 22h-103l-22 -22v-60z" />
    <glyph glyph-name="colon" unicode=":" horiz-adv-x="192" 
d="M7 315v179h179v-179h-179zM7 0v179h179v-179h-179zM168 332v144h-144v-144h144zM168 17v144h-144v-144h144zM46 39v101h101v-101h-101zM46 354v101h101v-101h-101z" />
    <glyph glyph-name="semicolon" unicode=";" horiz-adv-x="192" 
d="M7 0v179h179v-179l-128 -129v129h-51zM7 315v179h179v-179h-179zM168 332v144h-144v-144h144zM75 17v-106l93 93v157h-144v-144h51zM46 39v101h101v-122l-50 -50v71h-51zM46 354v101h101v-101h-101z" />
    <glyph glyph-name="less" unicode="&#x3c;" horiz-adv-x="560" 
d="M489 125l-274 192l274 190l-47 66l-367 -257l367 -257zM12 315l439 309l88 -126l-261 -182l261 -182l-88 -125zM36 316l411 -284l70 99l-264 186l265 184l-71 100z" />
    <glyph glyph-name="equal" unicode="=" horiz-adv-x="491" 
d="M13 161v158h466v-158h-466zM462 179v123h-433v-123h433zM52 200v81h389v-81h-389zM13 381v158h466v-158h-466zM462 399v123h-433v-123h433zM52 420v81h389v-81h-389z" />
    <glyph glyph-name="greater" unicode="&#x3e;" horiz-adv-x="560" 
d="M69 125l273 192l-273 190l46 66l368 -257l-368 -257zM546 315l-439 309l-88 -126l261 -182l-261 -182l87 -125zM522 316l-412 -284l-70 99l265 186l-266 184l71 100z" />
    <glyph glyph-name="question" unicode="?" horiz-adv-x="497" 
d="M7 449v139l112 113h259l112 -112v-188l-134 -136v-73h-213v118l155 156v41l-22 23h-54l-23 -24v-57h-192zM143 0v157h210v-157h-210zM335 17v124h-175v-124h175zM182 466v44l36 36h64l35 -34v-48l-157 -157v-99h178v60l135 135v182l-99 98h-252l-98 -98v-119h158zM181 39
v80h133v-80h-133zM46 488v81l92 92h221l92 -93v-151l-136 -136v-52h-134v65l154 154v75l-44 44h-87l-44 -44v-35h-114z" />
    <glyph glyph-name="at" unicode="@" horiz-adv-x="676" 
d="M197 202l42 219l55 46h135l38 -46l-43 -219l15 -14h85v311l-42 43h-289l-42 -43v-376l42 -42h289l66 -81h-421l-92 92v439l92 92h421l92 -92v-375h-218l-22 25l-30 -25h-136zM275 196h70l25 21l36 188l-17 22h-70l-25 -22l-36 -188z" />
    <glyph glyph-name="A" unicode="A" horiz-adv-x="695" 
d="M21 0v157h42l128 385h-31v158h372v-158h-35l128 -385h41v-157h-268v157h24l-11 33h-134l-12 -33h24v-157h-268zM272 17v124h-26l16 65h164l15 -65h-26v-124h235v124h-40l-134 418h39v124h-338v-124h34l-134 -418h-39v-124h234zM60 39v80h30l153 462h-44v80h295v-80h-49
l153 -462h30v-80h-191v80h38l-36 109h-191l-36 -109h38v-80h-190zM419 286l-75 228l-77 -228h152zM301 306l43 139l42 -139h-85zM367 324l-23 67l-23 -67h46z" />
    <glyph glyph-name="B" unicode="B" horiz-adv-x="587" 
d="M7 0v157h42v385h-42v158h433l112 -112v-180l-46 -46l46 -46v-204l-112 -112h-433zM433 17l102 102v190l-52 52l52 52v168l-102 102h-409v-124h41v-418h-41v-124h409zM46 39v80h41v462h-41v80h375l92 -92v-143l-63 -63l63 -63v-169l-92 -92h-375zM355 119l43 43v117
l-43 43h-152v-203h152zM355 402l43 43v93l-43 43h-152v-179h152zM224 141v160h117l36 -36v-88l-36 -36h-117zM224 424v135h117l36 -36v-63l-36 -36h-117zM337 441l23 23v55l-23 23h-96v-101h96zM337 157l23 23v81l-23 23h-96v-127h96z" />
    <glyph glyph-name="C" unicode="C" 
d="M35 112v476l112 112h308l112 -112v-156h-193v88l-22 22h-103l-22 -22v-340l23 -23h102l22 22v84h193v-151l-112 -112h-308zM154 17h297l99 99v131h-159v-71l-35 -35h-110l-35 35v348l35 35h110l35 -35v-77h159v137l-100 100h-299l-99 -100v-465zM74 131v438l92 92h271
l92 -92v-99h-116v67l-44 44h-137l-43 -43v-376l43 -43h137l44 44v63h118v-95l-92 -92h-273z" />
    <glyph glyph-name="D" unicode="D" horiz-adv-x="587" 
d="M7 0v157h42v385h-42v158h433l112 -112v-476l-112 -112h-433zM433 17l102 102v462l-102 102h-409v-124h41v-418h-41v-124h409zM46 39v80h41v462h-41v80h375l92 -92v-438l-92 -92h-375zM355 119l43 43v376l-43 43h-152v-462h152zM224 141v418h120l33 -33v-349l-36 -36h-117
zM337 157l23 23v340l-22 22h-97v-385h96z" />
    <glyph glyph-name="E" unicode="E" horiz-adv-x="556" 
d="M21 0v157h42v385h-42v158h514v-186h-157v28h-123v-113h28v27h158v-212h-158v27h-28v-114h123v29h157v-186h-514zM518 17v152h-124v-28h-156v148h62v-28h124v178h-124v-28h-62v148h156v-28h124v152h-480v-124h41v-418h-41v-124h480zM60 39v80h41v462h-41v80h437v-108h-81
v28h-199v-191h105v28h80v-136h-80v28h-105v-191h199v28h81v-108h-437z" />
    <glyph glyph-name="F" unicode="F" horiz-adv-x="549" 
d="M7 0v157h42v385h-42v158h514v-186h-157v28h-123v-113h28v27h158v-212h-158v27h-28v-114h81v-157h-315zM305 17v124h-81v147h62v-28h124v179h-124v-28h-62v148h156v-28h124v152h-480v-124h41v-418h-41v-124h281zM46 39v80h41v462h-41v80h437v-108h-81v28h-199v-191h105v28
h80v-136h-80v28h-105v-191h80v-80h-237z" />
    <glyph glyph-name="G" unicode="G" horiz-adv-x="601" 
d="M35 112v476l112 112h306l113 -113v-155h-193v88l-22 22h-102l-22 -22v-340l23 -23h101l22 22v67h-53v143h246v-275l-113 -114h-306zM153 17h295l100 100v255h-211v-109h53v-87l-35 -35h-109l-35 35v348l35 35h109l35 -35v-76h158v134l-101 101h-295l-100 -100v-465z
M74 131v439l91 91h270l92 -92v-99h-116v68l-43 43h-136l-43 -43v-376l43 -43h136l43 43v122h-51v67h167v-220l-92 -92h-269z" />
    <glyph glyph-name="H" unicode="H" horiz-adv-x="654" 
d="M7 0v157h42v385h-42v158h276v-158h-42v-96h137v96h-43v158h277v-158h-41v-385h41v-157h-277v157h43v117h-137v-117h42v-157h-276zM266 17v124h-42v150h171v-150h-42v-124h243v124h-43v418h43v124h-243v-124h42v-130h-171v130h42v124h-242v-124h41v-418h-41v-124h242z
M46 39v80h41v462h-41v80h199v-80h-42v-173h213v173h-42v80h200v-80h-42v-462h42v-80h-200v80h42v194h-213v-194h42v-80h-199z" />
    <glyph glyph-name="I" unicode="I" horiz-adv-x="346" 
d="M21 0v157h42v385h-42v158h276v-158h-42v-385h42v-157h-276zM280 17v123h-43v419h43v124h-242v-124h42v-419h-42v-123h242zM60 39v80h41v462h-41v80h199v-80h-42v-462h42v-80h-199z" />
    <glyph glyph-name="J" unicode="J" horiz-adv-x="535" 
d="M7 112v169h192v-101l23 -23h49l23 23v362h-60v158h294v-158h-42v-430l-112 -112h-255zM124 17h246l98 98v444h43v124h-260v-124h60v-384l-35 -34h-59l-35 34v89h-158v-147zM46 123v120h114v-80l44 -44h85l43 43v419h-59v80h217v-80h-42v-458l-93 -92h-216z" />
    <glyph glyph-name="K" unicode="K" horiz-adv-x="725" 
d="M7 0v157h42v385h-42v158h276v-158h-42v-99l99 99h-17v158h332v-158h-58l-190 -190l195 -195h53v-157h-332v157h19l-68 68l-32 -32v-36h42v-157h-277zM267 17v124h-43v56l50 50l106 -106h-40v-124h297v124h-42l-211 211l207 207h47v124h-298v-124h40l-156 -156v156h42v124
h-242v-124h41v-418h-41v-124h243zM46 39v80h41v462h-41v80h199v-80h-42v-232l232 232h-74v80h255v-80h-42l-231 -231l231 -231h42v-80h-255v80h75l-161 162l-72 -73v-89h43v-80h-200z" />
    <glyph glyph-name="L" unicode="L" horiz-adv-x="588" 
d="M21 0v157h42v385h-42v158h276v-158h-42v-385h126v42h158v-199h-518zM522 17v164h-124v-41h-161v419h43v124h-242v-124h42v-418h-41v-124h483zM60 39v80h41v462h-41v80h199v-80h-42v-462h202v42h81v-122h-440z" />
    <glyph glyph-name="M" unicode="M" horiz-adv-x="822" 
d="M7 0v157h42v385h-42v158h224l163 -271l162 271h225v-158h-42v-385h42v-157h-276v157h41v182l-152 -253l-153 253v-182h42v-157h-276zM266 17v124h-42v253l170 -285l169 295v-263h-42v-124h243v124h-42v418h42v124h-204l-166 -278l-167 278h-203v-124h41v-418h-41v-124
h242zM46 39v80h41v462h-41v80h155l193 -320l192 320h157v-80h-43v-462h43v-80h-200v80h42v352l-191 -319l-191 319v-352h42v-80h-199z" />
    <glyph glyph-name="N" unicode="N" horiz-adv-x="689" 
d="M7 0v157h42v385h-42v158h227l193 -321v163h-42v158h276v-158h-42v-385h42v-157h-231l-189 313v-156h42v-157h-276zM266 16v125h-42v232l214 -357h206v125h-42v418h42v124h-242v-124h42v-239l-218 363h-202v-124h41v-418h-41v-125h242zM46 39v80h41v462h-41v80h161
l259 -430v350h-43v80h200v-80h-43v-462h43v-80h-167l-253 422v-342h42v-80h-199z" />
    <glyph glyph-name="O" unicode="O" horiz-adv-x="609" 
d="M42 112v476l112 112h308l112 -112v-476l-112 -112h-308zM160 18h297l100 100v463l-102 102h-295l-100 -100v-465zM81 131v438l92 92h271l92 -92v-438l-92 -92h-271zM239 119h138l43 43v375l-44 44h-137l-43 -43v-376zM217 175v350l35 35h112l35 -35v-350l-35 -35h-112z
M257 157h102l22 22v341l-22 22h-103l-22 -22v-340z" />
    <glyph glyph-name="P" unicode="P" horiz-adv-x="601" 
d="M7 0v157h42v385h-42v158h433l112 -112v-211l-112 -112h-199v-108h42v-157h-276zM266 17v124h-42v141h211l100 101v199l-102 102h-409v-125h41v-418h-41v-124h242zM46 39v80h41v462h-41v80h375l92 -92v-173l-92 -93h-218v-184h42v-80h-199zM354 384l44 44v110l-43 43h-152
v-197h151zM224 406v153h118l35 -35v-82l-35 -36h-118zM338 423l22 22v75l-22 22h-97v-119h97z" />
    <glyph glyph-name="Q" unicode="Q" 
d="M35 112v476l112 112h308l112 -112v-388l74 -74l-106 -106l-30 30l-50 -50h-308zM150 18h301l54 55l29 -29l83 82l-69 69v387l-99 99h-296l-101 -101v-464zM74 131v438l92 92h271l92 -92v-387l56 -56l-51 -51l-31 31l-67 -67h-270zM232 119h137l44 44v32l-100 100l52 53
l48 -49v239l-43 43h-138l-43 -43v-376zM209 178v348l34 34h114l35 -35v-169l-25 25l-86 -86l110 -110v-9l-35 -35h-110zM250 157h102l23 24l-115 115l106 105l8 -8v127l-22 22h-103l-22 -22v-340z" />
    <glyph glyph-name="R" unicode="R" horiz-adv-x="636" 
d="M14 0v157h42v385h-42v158h433l112 -112v-180l-46 -45l46 -46v-160h42v-157h-234v263l-22 21h-97v-127h42v-157h-276zM273 17v124h-42v160h122l31 -31v-253h199v124h-41v169l-53 54l53 54v163l-102 102h-409v-124h41v-418h-41v-124h242zM53 39v80h41v462h-41v80h376
l91 -92v-141l-63 -64l63 -64v-181h42v-80h-157v240l-43 43h-152v-203h42v-80h-199zM361 402l44 44v93l-43 42h-152v-179h151zM231 424v135h117l36 -36v-64l-36 -35h-117zM344 441l23 22v56l-23 23h-96v-101h96z" />
    <glyph glyph-name="S" unicode="S" 
d="M35 112v134h192v-66l24 -23h100l23 22v69l-22 21h-205l-112 112v207l112 112h308l112 -112v-138h-193v70l-22 22h-104l-21 -22v-71l22 -22h206l112 -112v-203l-112 -112h-308zM152 17h298l100 99v196l-99 98h-206l-34 35v79l34 35h111l35 -35v-57h159v117l-99 99h-300
l-99 -99v-199l99 -99h205l35 -34v-76l-36 -35h-109l-35 35v53h-159v-113zM74 131v77h115v-46l43 -43h138l43 44v100l-44 45h-202l-93 93v168l92 92h270l93 -94v-79h-116v48l-44 45h-137l-43 -43v-106l43 -43h204l93 -94v-164l-91 -92h-273z" />
    <glyph glyph-name="T" unicode="T" horiz-adv-x="647" 
d="M14 501v199h591v-199h-158v41h-41v-385h41v-157h-276v157h42v385h-42v-41h-157zM154 517v42h76v-418h-42v-124h243v124h-42v418h76v-42h123v166h-557v-166h123zM53 539v122h514v-122h-81v42h-118v-462h41v-80h-199v80h42v462h-120v-42h-79z" />
    <glyph glyph-name="U" unicode="U" horiz-adv-x="701" 
d="M29 542v158h276v-158h-42v-363l22 -22h103l22 22v363h-42v158h277v-158h-43v-430l-111 -112h-308l-112 112v430h-42zM87 559v-443l99 -99h302l98 98v444h41v124h-242v-124h43v-383l-36 -35h-110l-36 36v382h42v124h-242v-124h41zM68 581v80h199v-80h-42v-419l43 -43h137
l44 44v418h-42v80h199v-80h-42v-450l-92 -92h-270l-93 93v449h-41z" />
    <glyph glyph-name="V" unicode="V" horiz-adv-x="744" 
d="M15 542v158h282v-158h-24l78 -233l78 233h-23v158h289v-158h-62l-128 -385h36v-157h-373v157h31l-128 385h-56zM76 559l142 -418h-33v-124h339v124h-39l143 418h51v124h-256v-124h26l-98 -282l-97 282h26v124h-248v-124h44zM54 581v80h205v-80h-39l131 -395l132 395h-38
v80h212v-80h-51l-154 -462h50v-80h-296v80h45l-154 462h-43z" />
    <glyph glyph-name="W" unicode="W" horiz-adv-x="1174" 
d="M7 542v158h292v-158h-28l78 -234l76 234h-23v158h314v-158h-23l77 -231l77 231h-24v158h287v-158h-55l-128 -385h23v-157h-358v157h23l-56 159l-56 -159h23v-157h-358v157h23l-128 385h-56zM71 559l143 -418h-29v-124h324v124h-26l76 210l76 -210h-26v-124h324v124h-29
l143 418h46v124h-253v-124h27l-97 -293l-98 293h26v124h-279v-124h27l-98 -293l-97 293h32v124h-259v-124h47zM46 581v80h215v-80h-44l131 -394l132 394h-40v80h237v-80h-39l132 -394l131 394h-39v80h210v-80h-48l-154 -462h42v-80h-281v80h39l-111 332l-111 -332h40v-80
h-282v80h42l-154 462h-48z" />
    <glyph glyph-name="X" unicode="X" horiz-adv-x="781" 
d="M7 0v157h64l194 193l-193 192h-65v158h332v-158h-6l63 -62l62 62h-7v158h323v-158h-54l-194 -192l194 -193h54v-157h-323v157h8l-63 63l-63 -63h6v-157h-332zM322 17v124h-23l97 99l99 -99h-27v-124h289v124h-44l-208 209l210 209h42v124h-289v-124h27l-99 -99l-100 99
h26v124h-298v-124h52l209 -209l-208 -209h-53v-124h298zM46 39v80h43l231 231l-232 231h-42v80h254v-80h-61l156 -156l156 156h-61v80h246v-80h-35l-230 -231l229 -231h36v-80h-246v80h61l-156 157l-156 -157h61v-80h-254z" />
    <glyph glyph-name="Y" unicode="Y" horiz-adv-x="816" 
d="M7 542v158h332v-158h-6l63 -62l63 62h-8v158h323v-158h-57l-226 -226v-159h42v-157h-275v157h41v159l-226 226h-66zM80 559l236 -236v-182h-42v-125h243v125h-43v182l237 236h46v124h-289v-124h31l-103 -103l-103 103h29v124h-298v-124h56zM46 581v80h254v-80h-61
l156 -156l156 156h-61v80h246v-80h-32l-251 -249v-213h42v-88h-199v88h42v213l-250 249h-42z" />
    <glyph glyph-name="Z" unicode="Z" horiz-adv-x="565" 
d="M7 0v133l273 409h-116v-41h-157v199h523v-133l-273 -410h115v42h158v-199h-523zM513 17v165h-124v-41h-156l280 430v112h-489v-166h123v42h157l-280 -430v-112h489zM46 39v80l307 462h-228v-42h-79v122h445v-80l-308 -462h227v42h81v-122h-445z" />
    <glyph glyph-name="bracketleft" unicode="[" horiz-adv-x="289" 
d="M186 86h94v-157h-266v847h266v-157h-94v-533zM31 -52h232v120h-94l-1 569h95v121h-232v-810zM148 48h93v-80h-189v769h189v-80h-93v-609z" />
    <glyph glyph-name="backslash" unicode="\" horiz-adv-x="556" 
d="M549 0l-350 700h-192l350 -700h192zM371 17l-335 666h149l335 -666h-149zM487 39l-311 622h-107l312 -622h106z" />
    <glyph glyph-name="bracketright" unicode="]" horiz-adv-x="289" 
d="M108 86h-94v-157h266v847h-266v-157h94v-533zM263 -52h-232v120h94v569h-94v121h232v-810zM146 48h-93v-80h188v769h-188v-80h93v-609z" />
    <glyph glyph-name="asciicircum" unicode="^" horiz-adv-x="537" 
d="M560 286h-163l-128 257l-130 -257h-162l217 414h148z" />
    <glyph glyph-name="underscore" unicode="_" horiz-adv-x="435" 
d="M435 -200h-440v60h440v-60z" />
    <glyph glyph-name="grave" unicode="`" horiz-adv-x="387" 
d="M297 560l-66 -43l-162 133l97 64z" />
    <glyph glyph-name="a" unicode="a" horiz-adv-x="582" 
d="M7 0v81h30l154 461h-45v81h295v-81h-49l153 -461h31v-81h-192v81h39l-37 109h-191l-36 -109h39v-81h-191zM367 247l-76 229l-76 -229h152z" />
    <glyph glyph-name="b" unicode="b" horiz-adv-x="510" 
d="M7 0v81h42v461h-42v81h376l92 -92v-144l-63 -63l63 -63v-169l-92 -92h-376zM316 81l44 42v117l-44 44h-152v-203h152zM316 364l44 43v92l-44 43h-152v-178h152z" />
    <glyph glyph-name="c" unicode="c" horiz-adv-x="525" 
d="M35 92v439l92 92h271l92 -92v-100h-116v68l-42 43h-139l-42 -43v-376l42 -42h139l42 42v64h116v-95l-92 -92h-271z" />
    <glyph glyph-name="d" unicode="d" horiz-adv-x="510" 
d="M7 0v81h42v461h-42v81h376l92 -92v-439l-92 -92h-376zM316 81l44 42v376l-44 43h-152v-461h152z" />
    <glyph glyph-name="e" unicode="e" horiz-adv-x="451" 
d="M7 0v81h42v461h-42v81h437v-109h-80v28h-200v-191h105v28h81v-135h-81v27h-105v-190h200v28h80v-109h-437z" />
    <glyph glyph-name="f" unicode="f" horiz-adv-x="451" 
d="M7 0v81h42v461h-42v81h437v-109h-80v28h-200v-191h105v28h81v-135h-81v27h-105v-190h81v-81h-238z" />
    <glyph glyph-name="g" unicode="g" horiz-adv-x="523" 
d="M35 92v439l92 92h270l91 -92v-100h-115v68l-43 43h-137l-42 -43v-376l42 -42h137l43 42v123h-52v66h167v-220l-91 -92h-270z" />
    <glyph glyph-name="h" unicode="h" horiz-adv-x="542" 
d="M7 0v81h42v461h-42v81h199v-81h-42v-173h214v173h-43v81h201v-81h-43v-461h43v-81h-201v81h43v193h-214v-193h42v-81h-199z" />
    <glyph glyph-name="i" unicode="i" horiz-adv-x="213" 
d="M7 0v81h42v461h-42v81h199v-81h-42v-461h42v-81h-199z" />
    <glyph glyph-name="j" unicode="j" horiz-adv-x="458" 
d="M7 86v118h115v-81l43 -42h86l43 42v419h-60v81h217v-81h-42v-456l-92 -93h-218z" />
    <glyph glyph-name="k" unicode="k" horiz-adv-x="584" 
d="M7 0v81h42v461h-42v81h199v-81h-42v-232l233 232h-74v81h254v-81h-41l-231 -231l231 -230h41v-81h-254v81h75l-163 161l-71 -71v-90h43v-81h-200z" />
    <glyph glyph-name="l" unicode="l" horiz-adv-x="455" 
d="M7 0v81h42v461h-42v81h199v-81h-42v-461h203v41h81v-122h-441z" />
    <glyph glyph-name="m" unicode="m" horiz-adv-x="711" 
d="M7 0v81h42v461h-42v81h156l193 -321l191 321h157v-81h-42v-461h42v-81h-199v81h41v351l-190 -318l-192 318v-351h42v-81h-199z" />
    <glyph glyph-name="n" unicode="n" horiz-adv-x="591" 
d="M7 0v81h42v461h-42v81h161l259 -431v350h-42v81h199v-81h-42v-461h42v-81h-166l-254 422v-341h42v-81h-199z" />
    <glyph glyph-name="o" unicode="o" horiz-adv-x="525" 
d="M35 92v439l92 92h271l92 -92v-439l-92 -92h-271zM193 81h139l42 42v376l-42 43h-139l-42 -43v-376z" />
    <glyph glyph-name="p" unicode="p" horiz-adv-x="482" 
d="M7 0v81h42v461h-42v81h376l92 -92v-173l-92 -93h-219v-184h42v-81h-199zM316 346l44 43v110l-44 43h-152v-196h152z" />
    <glyph glyph-name="q" unicode="q" horiz-adv-x="526" 
d="M35 92v439l92 92h271l92 -92v-385l57 -58l-51 -52l-31 31l-67 -67h-271zM193 81h139l42 42v34l-98 100l52 51l46 -47v238l-42 43h-139l-42 -43v-376z" />
    <glyph glyph-name="r" unicode="r" horiz-adv-x="524" 
d="M7 0v81h42v461h-42v81h376l92 -92v-144l-63 -63l63 -63v-180h42v-81h-157v240l-44 44h-152v-203h42v-81h-199zM316 364l44 43v92l-44 43h-152v-178h152z" />
    <glyph glyph-name="s" unicode="s" horiz-adv-x="525" 
d="M35 92v77h116v-46l42 -42h139l42 42v104l-42 42h-205l-92 93v169l92 92h271l92 -92v-81h-116v49l-42 43h-139l-42 -43v-105l42 -44h205l92 -92v-166l-92 -92h-271z" />
    <glyph glyph-name="t" unicode="t" horiz-adv-x="528" 
d="M7 501v122h514v-122h-81v41h-118v-461h42v-81h-200v81h42v461h-119v-41h-80z" />
    <glyph glyph-name="u" unicode="u" horiz-adv-x="552" 
d="M7 542v81h199v-81h-42v-419l44 -42h137l43 42v419h-42v81h199v-81h-41v-450l-93 -92h-270l-92 92v450h-42z" />
    <glyph glyph-name="v" unicode="v" horiz-adv-x="617" 
d="M7 542v81h205v-81h-39l132 -395l132 395h-39v81h213v-81h-51l-155 -461h50v-81h-295v81h45l-154 461h-44z" />
    <glyph glyph-name="w" unicode="w" horiz-adv-x="1040" 
d="M7 542v81h216v-81h-45l132 -394l131 394h-39v81h236v-81h-38l131 -394l131 394h-39v81h210v-81h-48l-154 -461h42v-81h-281v81h39l-111 331l-110 -331h39v-81h-281v81h42l-155 461h-48z" />
    <glyph glyph-name="x" unicode="x" horiz-adv-x="704" 
d="M7 0v81h44l231 230l-231 231h-44v81h255v-81h-62l157 -156l155 156h-61v81h246v-81h-34l-231 -231l231 -230h34v-81h-246v81h61l-155 155l-157 -155h62v-81h-255z" />
    <glyph glyph-name="y" unicode="y" horiz-adv-x="634" 
d="M7 542v81h255v-81h-62l122 -156l120 156h-61v81h246v-81h-34l-214 -248v-213h42v-88h-198v88h41v213l-213 248h-44z" />
    <glyph glyph-name="z" unicode="z" horiz-adv-x="460" 
d="M7 0v81l308 461h-228v-41h-80v122h446v-81l-308 -461h227v41h81v-122h-446z" />
    <glyph glyph-name="braceleft" unicode="{" horiz-adv-x="343" 
d="M293 -33v84h-55q-25 0 -32 14q-5 8 -5 30v171q0 79 -69 88v1q69 10 69 79v174q0 44 37 44h55v84h-98q-28 0 -56 -27q-34 -34 -34 -88v-188q0 -40 -56 -40v-77q26 0 34 -4q22 -9 22 -43v-189q0 -53 34 -86q28 -27 56 -27h98zM14 277h-4v155h4l52 -1v189q0 71 46 116
q39 38 83 38h136v-160h-91l-1 -180q0 -49 -26 -79q26 -32 26 -89v-171q0 -6 1 -6h91v-160h-136q-44 0 -83 37q-46 45 -46 114v197h-52zM238 631h76v126h-119q-41 0 -73 -31q-38 -38 -38 -104v-202q-4 -6 -57 -5v-121h46q11 -1 10 -17v-3v-4v-190q0 -66 39 -104
q32 -30 73 -30h119v126h-73q-19 0 -19 23v171q0 57 -28 89q28 31 28 79v179q2 5 5 11.5t11 6.5z" />
    <glyph glyph-name="bar" unicode="|" horiz-adv-x="223" 
d="M16 0v701h193v-701h-193zM191 17v666h-156v-666h156zM59 39v622h106v-622h-106z" />
    <glyph glyph-name="braceright" unicode="}" horiz-adv-x="343" 
d="M49 -33v84h55q24 0 32 14q5 8 5 30v171q0 79 68 88v1q-68 10 -68 79v174q0 44 -37 44h-55v84h97q29 0 56 -27q35 -34 35 -88v-188q0 -40 56 -40v-77q-26 0 -34 -4q-22 -10 -22 -43v-189q0 -53 -35 -86q-27 -27 -56 -27h-97zM328 277h3v155h-3l-52 -1l-1 189q0 71 -46 116
q-39 38 -83 38h-136v-160h92v-180q0 -49 26 -79q-26 -32 -26 -89v-171v-6h-92v-160h136q44 0 83 37q46 45 46 114v197h53zM104 631h-77v126h119q41 0 73 -31q38 -38 38 -104v-195q-2 -10 12 -12q6 -1 45 0v-121h-45q-12 -1 -11 -17l1 -3q-1 -2 -1 -5v-189q0 -66 -39 -104
q-32 -30 -73 -30h-119v126h74q18 0 18 23v171q0 57 28 89q-28 31 -28 79v179q-2 5 -5 11.5t-10 6.5z" />
    <glyph glyph-name="asciitilde" unicode="~" horiz-adv-x="627" 
d="M596 276q-28 -52 -68 -91q-54 -54 -103 -54q-44 0 -125 51.5t-100 51.5q-43 0 -83 -74l-86 86q28 54 68 91q49 45 100 45q41 0 117.5 -51t104.5 -51q38 0 85 88z" />
    <glyph glyph-name="Adieresis" unicode="&#xc4;" horiz-adv-x="667" 
d="M21 0v157h42l128 385h-31v158h372v-158h-35l128 -385h41v-157h-268v157h24l-11 33h-134l-12 -33h24v-157h-268zM272 17v124h-26l16 65h164l15 -65h-26v-124h235v124h-40l-134 418h39v124h-338v-124h34l-134 -418h-39v-124h234zM60 39v80h30l153 462h-44v80h295v-80h-49
l153 -462h30v-80h-191v80h38l-36 109h-191l-36 -109h38v-80h-190zM419 286l-75 228l-77 -228h152zM301 306l43 139l42 -139h-85zM367 324l-23 67l-23 -67h46zM516 834q0 -28 -22 -47t-51 -19q-30 0 -52 18.5t-22 47.5t22 47.5t52 18.5q29 0 51 -18.5t22 -47.5zM313 834
q0 -28 -22 -47t-51 -19q-30 0 -52 18.5t-22 47.5t22 47.5t52 18.5q29 0 51 -18.5t22 -47.5z" />
    <glyph glyph-name="Aring" unicode="&#xc5;" horiz-adv-x="667" 
d="M21 0v157h42l128 385h-31v158h372v-158h-35l128 -385h41v-157h-268v157h24l-11 33h-134l-12 -33h24v-157h-268zM272 17v124h-26l16 65h164l15 -65h-26v-124h235v124h-40l-134 418h39v124h-338v-124h34l-134 -418h-39v-124h234zM60 39v80h30l153 462h-44v80h295v-80h-49
l153 -462h30v-80h-191v80h38l-36 109h-191l-36 -109h38v-80h-190zM419 286l-75 228l-77 -228h152zM301 306l43 139l42 -139h-85zM367 324l-23 67l-23 -67h46zM454 866q0 -45 -31.5 -70.5t-78.5 -25.5q-45 0 -75 25q-33 27 -33 71q0 45 32 73q30 25 76 25t77 -25
q33 -28 33 -73zM383 867q0 32 -39 32q-38 0 -38 -32q0 -33 38 -33q39 0 39 33z" />
    <glyph glyph-name="Ccedilla" unicode="&#xc7;" horiz-adv-x="612" 
d="M35 112v476l112 112h308l112 -113v-155h-193v88l-22 22h-103l-22 -23v-339l23 -23h102l22 22v84h193v-151l-112 -112h-116l-49 -62q19 5 32 5q36 0 59.5 -19.5t23.5 -55.5q0 -46 -39 -71q-33 -22 -81 -22t-96 23l18 40q37 -16 66 -16q55 0 55 41q0 19 -14.5 29.5
t-33.5 10.5h-12q-6 -1 -27 -8l-18 20l65 85h-140zM153 19h296l101 100v128h-159v-73l-34 -34h-115l-31 31v353l35 35h110l35 -35v-76h159v134l-100 100h-298l-100 -100v-462zM74 131v438l92 92h271l92 -92v-99h-116v68l-44 43h-137l-43 -42v-377l44 -43h136l44 43v64h116
v-95l-92 -92h-271z" />
    <glyph glyph-name="Eacute" unicode="&#xc9;" horiz-adv-x="549" 
d="M21 0v157h42v385h-42v158h514v-186h-157v28h-123v-113h28v27h158v-212h-158v27h-28v-114h123v29h157v-186h-514zM518 17v152h-124v-28h-156v148h62v-28h124v178h-124v-28h-62v148h156v-28h124v152h-480v-124h41v-418h-41v-124h480zM60 39v80h41v462h-41v80h437v-108h-81
v28h-199v-191h105v28h80v-136h-80v28h-105v-191h199v28h81v-108h-437zM418 904l-164 -134l-66 44l131 154z" />
    <glyph glyph-name="Ntilde" unicode="&#xd1;" horiz-adv-x="688" 
d="M7 0v157h42v385h-42v158h227l193 -321v163h-42v158h276v-158h-42v-385h42v-157h-231l-189 313v-156h42v-157h-276zM266 16v125h-42v232l214 -357h206v125h-42v418h42v124h-242v-124h42v-239l-218 363h-202v-124h41v-418h-41v-125h242zM46 39v80h41v462h-41v80h161
l259 -430v350h-43v80h200v-80h-43v-462h43v-80h-167l-253 422v-342h42v-80h-199zM548 863q-49 -94 -122 -94q-27 0 -75 23.5t-63 23.5q-29 0 -51 -44l-65 47q48 89 122 89q29 0 73 -24t60 -24q28 0 55 47z" />
    <glyph glyph-name="Odieresis" unicode="&#xd6;" horiz-adv-x="599" 
d="M42 112v476l112 112h308l112 -112v-476l-112 -112h-308zM160 18h297l100 100v463l-102 102h-295l-100 -100v-465zM81 131v438l92 92h271l92 -92v-438l-92 -92h-271zM239 119h138l43 43v375l-44 44h-137l-43 -43v-376zM217 175v350l35 35h112l35 -35v-350l-35 -35h-112z
M257 157h102l22 22v341l-22 22h-103l-22 -22v-340zM477 832q0 -28 -22 -47t-51 -19q-30 0 -52 18.5t-22 47.5t22 47.5t52 18.5q29 0 51 -18.5t22 -47.5zM274 832q0 -28 -22 -47t-51 -19q-30 0 -52 18.5t-22 47.5t22 47.5t52 18.5q29 0 51 -18.5t22 -47.5z" />
    <glyph glyph-name="Udieresis" unicode="&#xdc;" horiz-adv-x="653" 
d="M29 542v158h276v-158h-42v-363l22 -22h103l22 22v363h-42v158h277v-158h-43v-430l-111 -112h-308l-112 112v430h-42zM87 559v-443l99 -99h302l98 98v444h41v124h-242v-124h43v-383l-36 -35h-110l-36 36v382h42v124h-242v-124h41zM68 581v80h199v-80h-42v-419l43 -43h137
l44 44v418h-42v80h199v-80h-42v-450l-92 -92h-270l-93 93v449h-41zM480 837q0 -28 -22 -47t-51 -19q-30 0 -52 18.5t-22 47.5t22 47.5t52 18.5q29 0 51 -18.5t22 -47.5zM277 837q0 -28 -22 -47t-51 -19q-30 0 -52 18.5t-22 47.5t22 47.5t52 18.5q29 0 51 -18.5t22 -47.5z
" />
    <glyph glyph-name="aacute" unicode="&#xe1;" horiz-adv-x="594" 
d="M7 0v81h30l154 461h-45v81h295v-81h-49l153 -461h31v-81h-192v81h39l-37 109h-191l-36 -109h39v-81h-191zM367 247l-76 229l-76 -229h152zM433 811l-164 -134l-66 44l131 154z" />
    <glyph glyph-name="agrave" unicode="&#xe0;" horiz-adv-x="600" 
d="M7 0v81h30l154 461h-45v81h295v-81h-49l153 -461h31v-81h-192v81h39l-37 109h-191l-36 -109h39v-81h-191zM367 247l-76 229l-76 -229h152zM375 718l-66 -43l-162 133l97 64z" />
    <glyph glyph-name="acircumflex" unicode="&#xe2;" horiz-adv-x="597" 
d="M7 0v81h30l154 461h-45v81h295v-81h-49l153 -461h31v-81h-192v81h39l-37 109h-191l-36 -109h39v-81h-191zM367 247l-76 229l-76 -229h152zM464 744l-55 -70l-115 73l-116 -72l-54 70l171 114z" />
    <glyph glyph-name="adieresis" unicode="&#xe4;" horiz-adv-x="597" 
d="M7 0v81h30l154 461h-45v81h295v-81h-49l153 -461h31v-81h-192v81h39l-37 109h-191l-36 -109h39v-81h-191zM367 247l-76 229l-76 -229h152zM471 741q0 -28 -22 -47t-51 -19q-30 0 -52 18.5t-22 47.5t22 47.5t52 18.5q29 0 51 -18.5t22 -47.5zM268 741q0 -28 -22 -47
t-51 -19q-30 0 -52 18.5t-22 47.5t22 47.5t52 18.5q29 0 51 -18.5t22 -47.5z" />
    <glyph glyph-name="atilde" unicode="&#xe3;" horiz-adv-x="597" 
d="M7 0v81h30l154 461h-45v81h295v-81h-49l153 -461h31v-81h-192v81h39l-37 109h-191l-36 -109h39v-81h-191zM367 247l-76 229l-76 -229h152zM505 770q-49 -94 -122 -94q-27 0 -75 23.5t-63 23.5q-29 0 -51 -44l-65 47q48 89 122 89q29 0 73 -24t60 -24q28 0 55 47z" />
    <glyph glyph-name="aring" unicode="&#xe5;" horiz-adv-x="600" 
d="M7 0v81h30l154 461h-45v81h295v-81h-49l153 -461h31v-81h-192v81h39l-37 109h-191l-36 -109h39v-81h-191zM367 247l-76 229l-76 -229h152zM413 771q0 -45 -31.5 -70.5t-78.5 -25.5q-45 0 -75 25q-33 27 -33 71q0 45 32 73q30 25 76 25t77 -25q33 -28 33 -73zM342 772
q0 32 -39 32q-38 0 -38 -32q0 -33 38 -33q39 0 39 33z" />
    <glyph glyph-name="ccedilla" unicode="&#xe7;" horiz-adv-x="528" 
d="M35 92v439l92 92h271l92 -92v-100h-116v68l-42 43h-139l-42 -43v-376l42 -42h139l42 42v64h116v-95l-92 -92h-124l-46 -62q21 5 34 5q34 0 57.5 -20.5t23.5 -54.5q0 -46 -37 -71q-33 -22 -81 -22q-49 0 -97 23l18 40q37 -16 66 -16q54 0 54 41q0 17 -13 28.5t-30 11.5
q-12 0 -32 -5l-12 -3l-16 20l63 85h-99z" />
    <glyph glyph-name="eacute" unicode="&#xe9;" horiz-adv-x="465" 
d="M7 0v81h42v461h-42v81h437v-109h-80v28h-200v-191h105v28h81v-135h-81v27h-105v-190h200v28h80v-109h-437zM349 808l-164 -134l-66 44l131 154z" />
    <glyph glyph-name="egrave" unicode="&#xe8;" horiz-adv-x="465" 
d="M7 0v81h42v461h-42v81h437v-109h-80v28h-200v-191h105v28h81v-135h-81v27h-105v-190h200v28h80v-109h-437zM363 718l-66 -43l-162 133l97 64z" />
    <glyph glyph-name="ecircumflex" unicode="&#xea;" horiz-adv-x="462" 
d="M7 0v81h42v461h-42v81h437v-109h-80v28h-200v-191h105v28h81v-135h-81v27h-105v-190h200v28h80v-109h-437zM397 744l-55 -70l-115 73l-116 -72l-54 70l171 114z" />
    <glyph glyph-name="edieresis" unicode="&#xeb;" horiz-adv-x="471" 
d="M7 0v81h42v461h-42v81h437v-109h-80v28h-200v-191h105v28h81v-135h-81v27h-105v-190h200v28h80v-109h-437zM407 738q0 -28 -22 -47t-51 -19q-30 0 -52 18.5t-22 47.5t22 47.5t52 18.5q29 0 51 -18.5t22 -47.5zM204 738q0 -28 -22 -47t-51 -19q-30 0 -52 18.5t-22 47.5
t22 47.5t52 18.5q29 0 51 -18.5t22 -47.5z" />
    <glyph glyph-name="iacute" unicode="&#xed;" horiz-adv-x="239" 
d="M7 0v81h42v461h-42v81h199v-81h-42v-461h42v-81h-199zM237 809l-164 -134l-66 44l131 154z" />
    <glyph glyph-name="igrave" unicode="&#xec;" horiz-adv-x="231" 
d="M7 0v81h42v461h-42v81h199v-81h-42v-461h42v-81h-199zM202 715l-66 -43l-162 133l97 64z" />
    <glyph glyph-name="icircumflex" unicode="&#xee;" horiz-adv-x="230" 
d="M7 0v81h42v461h-42v81h199v-81h-42v-461h42v-81h-199zM275 740l-55 -70l-115 73l-116 -72l-54 70l171 114z" />
    <glyph glyph-name="idieresis" unicode="&#xef;" horiz-adv-x="229" 
d="M7 0v81h42v461h-42v81h199v-81h-42v-461h42v-81h-199zM277 740q0 -28 -22 -47t-51 -19q-30 0 -52 18.5t-22 47.5t22 47.5t52 18.5q29 0 51 -18.5t22 -47.5zM74 740q0 -28 -22 -47t-51 -19q-30 0 -52 18.5t-22 47.5t22 47.5t52 18.5q29 0 51 -18.5t22 -47.5z" />
    <glyph glyph-name="ntilde" unicode="&#xf1;" horiz-adv-x="610" 
d="M7 0v81h42v461h-42v81h161l259 -431v350h-42v81h199v-81h-42v-461h42v-81h-166l-254 422v-341h42v-81h-199zM488 766q-49 -94 -122 -94q-27 0 -75 23.5t-63 23.5q-29 0 -51 -44l-65 47q48 89 122 89q29 0 73 -24t60 -24q28 0 55 47z" />
    <glyph glyph-name="oacute" unicode="&#xf3;" horiz-adv-x="518" 
d="M35 92v439l92 92h271l92 -92v-439l-92 -92h-271zM193 81h139l42 42v376l-42 43h-139l-42 -43v-376zM416 808l-164 -134l-66 44l131 154z" />
    <glyph glyph-name="ograve" unicode="&#xf2;" horiz-adv-x="521" 
d="M35 92v439l92 92h271l92 -92v-439l-92 -92h-271zM193 81h139l42 42v376l-42 43h-139l-42 -43v-376zM398 718l-66 -43l-162 133l97 64z" />
    <glyph glyph-name="ocircumflex" unicode="&#xf4;" horiz-adv-x="521" 
d="M35 92v439l92 92h271l92 -92v-439l-92 -92h-271zM193 81h139l42 42v376l-42 43h-139l-42 -43v-376zM442 741l-55 -70l-115 73l-116 -72l-54 70l171 114z" />
    <glyph glyph-name="odieresis" unicode="&#xf6;" horiz-adv-x="527" 
d="M35 92v439l92 92h271l92 -92v-439l-92 -92h-271zM193 81h139l42 42v376l-42 43h-139l-42 -43v-376zM440 741q0 -28 -22 -47t-51 -19q-30 0 -52 18.5t-22 47.5t22 47.5t52 18.5q29 0 51 -18.5t22 -47.5zM237 741q0 -28 -22 -47t-51 -19q-30 0 -52 18.5t-22 47.5t22 47.5
t52 18.5q29 0 51 -18.5t22 -47.5z" />
    <glyph glyph-name="otilde" unicode="&#xf5;" horiz-adv-x="521" 
d="M35 92v439l92 92h271l92 -92v-439l-92 -92h-271zM193 81h139l42 42v376l-42 43h-139l-42 -43v-376zM465 770q-49 -94 -122 -94q-27 0 -75 23.5t-63 23.5q-29 0 -51 -44l-65 47q48 89 122 89q29 0 73 -24t60 -24q28 0 55 47z" />
    <glyph glyph-name="uacute" unicode="&#xfa;" horiz-adv-x="568" 
d="M7 542v81h199v-81h-42v-419l44 -42h137l43 42v419h-42v81h199v-81h-41v-450l-93 -92h-270l-92 92v450h-42zM403 806l-164 -134l-66 44l131 154z" />
    <glyph glyph-name="ugrave" unicode="&#xf9;" horiz-adv-x="565" 
d="M7 542v81h199v-81h-42v-419l44 -42h137l43 42v419h-42v81h199v-81h-41v-450l-93 -92h-270l-92 92v450h-42zM402 719l-66 -43l-162 133l97 64z" />
    <glyph glyph-name="ucircumflex" unicode="&#xfb;" horiz-adv-x="568" 
d="M7 542v81h199v-81h-42v-419l44 -42h137l43 42v419h-42v81h199v-81h-41v-450l-93 -92h-270l-92 92v450h-42zM465 745l-55 -70l-115 73l-116 -72l-54 70l171 114z" />
    <glyph glyph-name="udieresis" unicode="&#xfc;" horiz-adv-x="565" 
d="M7 542v81h199v-81h-42v-419l44 -42h137l43 42v419h-42v81h199v-81h-41v-450l-93 -92h-270l-92 92v450h-42zM457 740q0 -28 -22 -47t-51 -19q-30 0 -52 18.5t-22 47.5t22 47.5t52 18.5q29 0 51 -18.5t22 -47.5zM254 740q0 -28 -22 -47t-51 -19q-30 0 -52 18.5t-22 47.5
t22 47.5t52 18.5q29 0 51 -18.5t22 -47.5z" />
    <glyph glyph-name="dagger" unicode="&#x2020;" horiz-adv-x="578" 
d="M371 395v-589h-165v589h-188v147h188v211h165v-211h188v-147h-188z" />
    <glyph glyph-name="degree" unicode="&#xb0;" horiz-adv-x="400" 
d="M347 557q0 -62 -42.5 -104.5t-104.5 -42.5t-104.5 42t-42.5 104q0 63 42 105t105 42t105 -41.5t42 -104.5zM297 556q0 41 -28.5 72t-69.5 31h-6q-37 0 -64 -32t-27 -70q0 -39 28 -71t67 -32q42 0 71 30t29 72z" />
    <glyph glyph-name="cent" unicode="&#xa2;" horiz-adv-x="629" 
d="M49 112v476l111 112h78v69h160v-69h71l111 -112v-156h-192v88l-22 22h-102l-23 -22v-341l23 -22h102l22 22v84h192v-151l-112 -112h-74v-72h-160v72h-73zM165 15h86v-70h126v70h86l101 102v130h-159v-70l-37 -36h-108l-36 36v346l35 36h110l36 -36v-75h159v136l-99 99
h-85v68h-125v-69h-91l-99 -99v-467zM87 131l-1 439l93 92h97v65h83v-66h90l93 -93v-98h-115v68l-43 43h-138l-44 -44v-375l43 -43h139l43 43v64h115v-95l-93 -93h-93v-69h-82v69h-93z" />
    <glyph glyph-name="sterling" unicode="&#xa3;" 
d="M49 245v142h41v155h-41v158h276v-158h-42v-155h282v-141h-282v-89h126v42h158v-199h-518v157h41v88h-41zM550 17v165h-124v-41h-160v122h282v107h-282v189h42v124h-243v-124h43v-189h-42v-108h42v-121h-43v-124h485zM87 39v80h42v167h-39v62h39v233h-42v80h200v-80h-42
v-234h282v-61h-281v-167h201v42h81v-122h-441z" />
    <glyph glyph-name="section" unicode="&#xa7;" horiz-adv-x="596" 
d="M566 307q0 -91 -85 -151q43 -48 43 -109q0 -89 -69 -142q-63 -48 -155 -48t-166 57q-67 51 -65 97l115 38q10 -26 46.5 -47t65.5 -21q33 0 58 19t25 50q0 28 -26 47q-14 11 -50 27l-120 53q-76 35 -105 60q-48 41 -48 106q0 90 93 150q-35 43 -35 94q0 80 68 128
q61 43 144 43q74 0 132 -28q69 -35 84 -99l-115 -38q-17 53 -100 53q-27 0 -47 -17t-20 -44q0 -26 25 -44q7 -6 47 -25l117 -54q68 -32 98 -58q45 -39 45 -97zM428 286q0 28 -49 52l-179 87q-34 -27 -34 -66q0 -32 56 -58l173 -80q33 31 33 65z" />
    <glyph glyph-name="bullet" unicode="&#x2022;" horiz-adv-x="336" 
d="M28 350q0 58 41 99t99 41t99 -41t41 -99t-41 -99t-99 -41t-99 41t-41 99z" />
    <glyph glyph-name="paragraph" unicode="&#xb6;" horiz-adv-x="537" 
d="M497 -172h-75v829h-116v-829h-75v516q-93 0 -151 48q-63 52 -63 142t66 140q59 44 152 44h262v-890z" />
    <glyph glyph-name="germandbls" unicode="&#xdf;" horiz-adv-x="629" 
d="M609 256q0 -130 -88 -206q-86 -72 -217 -65v134q54 0 93 35t39 89t-38.5 86t-93.5 30v130q39 -1 65 23.5t26 63.5q0 35 -25 55.5t-61 20.5q-78 0 -78 -111v-541h-171v586q0 100 66 160q63 57 165 57q105 0 176 -46q83 -54 83 -153q0 -94 -74 -143q61 -29 97 -84t36 -121z
" />
    <glyph glyph-name="registered" unicode="&#xae;" horiz-adv-x="768" 
d="M719 376q0 141 -97 238t-238 97t-238 -97t-97 -238t97 -238t238 -97t238 97t97 238zM681 376q0 -124 -86.5 -210.5t-210.5 -86.5t-210.5 86t-86.5 210t86 210.5t210 86.5t211 -86t87 -210zM384 3q-158 0 -265.5 107.5t-107.5 265.5q0 157 108 265.5t265 108.5
t265.5 -108.5t108.5 -265.5t-108.5 -265t-265.5 -108zM384 17q151 0 255.5 104t104.5 255t-104.5 255.5t-255.5 104.5t-255 -104.5t-104 -255.5q0 -152 103.5 -255.5t255.5 -103.5zM126 375q0 -108 75 -183t183 -75t183.5 75.5t75.5 183.5t-76 183t-184 75t-182.5 -75.5
t-74.5 -183.5zM114 375q0 113 78 192t191 79t192.5 -78.5t79.5 -191.5t-79 -192t-192 -79t-191.5 78.5t-78.5 191.5zM259 213v41h21v230h-21v41h188l46 -46v-72l-32 -32l32 -31v-90h21v-41h-79v120l-22 22h-76v-101h21v-41h-99zM413 395l22 22v46l-22 21h-76v-89h76z" />
    <glyph glyph-name="copyright" unicode="&#xa9;" horiz-adv-x="768" 
d="M719 376q0 141 -97 238t-238 97t-238 -97t-97 -238t97 -238t238 -97t238 97t97 238zM681 376q0 -124 -86.5 -210.5t-210.5 -86.5t-210.5 86t-86.5 210t86 210.5t210 86.5t211 -86t87 -210zM384 3q-158 0 -265.5 107.5t-107.5 265.5q0 157 108 265.5t265 108.5
t265.5 -108.5t108.5 -265.5t-108.5 -265t-265.5 -108zM384 17q151 0 255.5 104t104.5 255t-104.5 255.5t-255.5 104.5t-255 -104.5t-104 -255.5q0 -152 103.5 -255.5t255.5 -103.5zM126 375q0 -108 75 -183t183 -75t183.5 75.5t75.5 183.5t-76 183t-184 75t-182.5 -75.5
t-74.5 -183.5zM114 375q0 113 78 192t191 79t192.5 -78.5t79.5 -191.5t-79 -192t-192 -79t-191.5 78.5t-78.5 191.5zM269 264v220l46 46h136l46 -46v-50h-58v34l-21 21h-70l-21 -21v-188l21 -21h70l21 21v32h58v-48l-46 -46h-136z" />
    <glyph glyph-name="trademark" unicode="&#x2122;" horiz-adv-x="664" 
d="M17 644v61h257v-61h-40v21h-59v-231h21v-40h-100v40h21v231h-60v-21h-40zM293 394v40h21v231h-21v40h78l96 -160l96 160h78v-40h-21v-231h21v-40h-99v40h20v176l-95 -159l-96 159v-176h21v-40h-99z" />
    <glyph glyph-name="acute" unicode="&#xb4;" horiz-adv-x="387" 
d="M313 650l-164 -134l-66 44l131 154z" />
    <glyph glyph-name="dieresis" unicode="&#xa8;" horiz-adv-x="512" 
d="M429 619q0 -28 -22 -47t-51 -19q-30 0 -52 18.5t-22 47.5t22 47.5t52 18.5q29 0 51 -18.5t22 -47.5zM226 619q0 -28 -22 -47t-51 -19q-30 0 -52 18.5t-22 47.5t22 47.5t52 18.5q29 0 51 -18.5t22 -47.5z" />
    <glyph glyph-name="AE" unicode="&#xc6;" horiz-adv-x="719" 
d="M292 247l-1 229l-76 -229h77zM250 0v81h42v108l-97 1l-36 -109h39v-81h-191v81h30l154 461h-45v81h541v-109h-80v28h-200v-191h105v28h81v-135h-81v27h-105v-190h200v28h80v-109h-437z" />
    <glyph glyph-name="Oslash" unicode="&#xd8;" horiz-adv-x="525" 
d="M374 359l-139 -278h97l42 42v236zM151 298l121 244h-79l-42 -42v-202zM-11 -34l57 114l-11 12v439l92 92h185l26 53h192l-62 -123l22 -22v-439l-93 -92h-200l-16 -34h-192zM374 446l-182 -365h28l154 310v55zM354 623l7 14h107l-28 -56l17 -17l49 95h-160l-19 -36h27z
M151 211l163 331h-26l-137 -276v-55zM50 5l23 48l-18 19l-45 -89h160l8 17h-51l-5 5h-72z" />
    <glyph glyph-name="plusminus" unicode="&#xb1;" horiz-adv-x="626" 
d="M385 345v-161h-145v161h-216v144h216v160h145v-160h215v-144h-215zM24 3v144h576v-144h-576z" />
    <glyph glyph-name="yen" unicode="&#xa5;" horiz-adv-x="647" 
d="M648 700q-130 -233 -138 -245h90v-91h-139l-40 -71v-6h179v-92h-179v-195h-175v195h-191v92h191l-6 17l-37 60h-148v91h93l-149 245h196l136 -257l129 257h188z" />
    <glyph glyph-name="mu" unicode="&#xb5;" horiz-adv-x="565" 
d="M528 187q0 -100 -72 -154q-65 -49 -168 -49q-39 0 -70 17v-227h-172v683h172v-249q0 -85 71 -85q66 0 66 85v249h173v-270z" />
    <glyph glyph-name="mu" unicode="&#x3bc;" horiz-adv-x="565" 
d="M528 187q0 -100 -72 -154q-65 -49 -168 -49q-39 0 -70 17v-227h-172v683h172v-249q0 -85 71 -85q66 0 66 85v249h173v-270z" />
    <glyph glyph-name="ordfeminine" unicode="&#xaa;" horiz-adv-x="425" 
d="M406 237h-383v91h383v-91zM82 385v40h15l77 231h-22v40h147v-40h-24l76 -231h16v-40h-96v40h19l-18 55h-96l-18 -55h20v-40h-96zM262 508l-38 115l-38 -115h76z" />
    <glyph glyph-name="ordmasculine" unicode="&#xba;" horiz-adv-x="425" 
d="M406 237h-383v91h383v-91zM95 424v220l46 46h136l46 -46v-220l-46 -46h-136zM174 419h70l21 21v188l-21 21h-70l-21 -21v-188z" />
    <glyph glyph-name="ae" unicode="&#xe6;" horiz-adv-x="719" 
d="M292 247l-1 229l-76 -229h77zM250 0v81h42v108l-97 1l-36 -109h39v-81h-191v81h30l154 461h-45v81h541v-109h-80v28h-200v-191h105v28h81v-135h-81v27h-105v-190h200v28h80v-109h-437z" />
    <glyph glyph-name="oslash" unicode="&#xf8;" horiz-adv-x="525" 
d="M374 359l-139 -278h98l41 42v236zM151 300l121 242h-79l-42 -42v-200zM-11 -34l57 115l-11 11v439l92 92h185l26 53h192l-62 -123l22 -22v-439l-92 -92h-201l-16 -34h-192zM374 446l-182 -365h28l154 310v55zM354 623l7 14h107l-28 -56l17 -18l48 97h-158l-19 -37h26z
M151 211l163 331h-26l-137 -276v-55zM50 5l23 49l-15 15l-43 -86h155l8 17h-51l-5 5h-72z" />
    <glyph glyph-name="questiondown" unicode="&#xbf;" horiz-adv-x="497" 
d="M490 251v-140l-112 -111h-259l-112 111v188l136 136v73h211v-120l-155 -154v-41l22 -22h55l22 23v57h192zM354 700v-157h-210v157h210zM162 683v-123h175v123h-175zM315 234v-44l-35 -36h-63l-35 35v50l155 154v98h-177v-60l-137 -136v-178l100 -100h251l99 99v118h-158z
M316 661v-80h-133v80h133zM451 212v-81l-92 -92h-222l-91 92v150l135 136v54h135v-66l-154 -154v-74l43 -44h88l44 44v35h114z" />
    <glyph glyph-name="exclamdown" unicode="&#xa1;" horiz-adv-x="262" 
d="M228 490v-490h-193v490h193zM228 700v-158h-193v158h193zM52 473v-456h159v456h-159zM52 683v-124h159v124h-159zM189 661v-80h-115v80h115zM189 451v-412h-115v412h115z" />
    <glyph glyph-name="logicalnot" unicode="&#xac;" horiz-adv-x="584" 
d="M545 108h-75v209h-431v73h506v-282z" />
    <glyph glyph-name="florin" unicode="&#x192;" horiz-adv-x="556" 
d="M501 721l-15 -78q-39 17 -60 17q-30 0 -49.5 -26.5t-28.5 -72.5l-20 -99h114v-71h-127l-64 -351q-21 -113 -70 -180t-132 -67q-38 0 -61 13l16 81q26 -14 53 -14q46 0 72 55q13 29 25 95l68 368h-109v71h123l3 12q10 46 26 114q15 55 42 89q47 60 122 60q34 0 72 -16z
" />
    <glyph glyph-name="guillemotleft" unicode="&#xab;" horiz-adv-x="556" 
d="M460 446l-1 -88l-105 -81l105 -81v-89l-158 125v91zM255 196l-1 -89l-157 125v91l158 124l-1 -89l-104 -81z" />
    <glyph glyph-name="guillemotright" unicode="&#xbb;" horiz-adv-x="556" 
d="M459 231l-158 -124v89l105 81l-105 81v89l158 -124v-92zM254 231l-158 -124v89l105 81l-105 81v89l158 -124v-92z" />
    <glyph glyph-name="ellipsis" unicode="&#x2026;" horiz-adv-x="1080" 
d="M1001 93q0 -44 -30 -74t-74 -30q-45 0 -75 29.5t-30 74.5t30 76t75 31t74.5 -31t29.5 -76zM641 93q0 -44 -30 -74t-74 -30t-74.5 29.5t-30.5 74.5t30 76t75 31t74.5 -31t29.5 -76zM281 93q0 -44 -30 -74t-74 -30t-74.5 29.5t-30.5 74.5t30 76t75 31t74.5 -31t29.5 -76z
" />
    <glyph glyph-name="nonbreakingspace" unicode="&#xa0;" horiz-adv-x="282" 
 />
    <glyph glyph-name="Agrave" unicode="&#xc0;" horiz-adv-x="262" 
d="M35 210v490h193v-490h-193zM35 0v158h193v-158h-193zM211 227v456h-159v-456h159zM211 17v124h-159v-124h159zM74 39v80h115v-80h-115zM74 249v412h115v-412h-115z" />
    <glyph glyph-name="Atilde" unicode="&#xc3;" horiz-adv-x="667" 
d="M21 0v157h42l128 385h-31v158h372v-158h-35l128 -385h41v-157h-268v157h24l-11 33h-134l-12 -33h24v-157h-268zM272 17v124h-26l16 65h164l15 -65h-26v-124h235v124h-40l-134 418h39v124h-338v-124h34l-134 -418h-39v-124h234zM60 39v80h30l153 462h-44v80h295v-80h-49
l153 -462h30v-80h-191v80h38l-36 109h-191l-36 -109h38v-80h-190zM419 286l-75 228l-77 -228h152zM301 306l43 139l42 -139h-85zM367 324l-23 67l-23 -67h46zM556 866q-49 -94 -122 -94q-27 0 -75 23.5t-63 23.5q-29 0 -51 -44l-65 47q48 89 122 89q29 0 73 -24t60 -24
q28 0 55 47z" />
    <glyph glyph-name="Otilde" unicode="&#xd5;" horiz-adv-x="599" 
d="M42 112v476l112 112h308l112 -112v-476l-112 -112h-308zM160 18h297l100 100v463l-102 102h-295l-100 -100v-465zM81 131v438l92 92h271l92 -92v-438l-92 -92h-271zM239 119h138l43 43v375l-44 44h-137l-43 -43v-376zM217 175v350l35 35h112l35 -35v-350l-35 -35h-112z
M257 157h102l22 22v341l-22 22h-103l-22 -22v-340zM504 863q-49 -94 -122 -94q-27 0 -75 23.5t-63 23.5q-29 0 -51 -44l-65 47q48 89 122 89q29 0 73 -24t60 -24q28 0 55 47z" />
    <glyph glyph-name="OE" unicode="&#x152;" horiz-adv-x="791" 
d="M768 623v-109h-80v28h-200v-191h105v28h81v-135h-81v27h-105v-190h200v28h80v-109h-641l-92 92v439l92 92h641zM332 81l41 41v378l-41 42h-139l-42 -43v-376l42 -42h139z" />
    <glyph glyph-name="oe" unicode="&#x153;" horiz-adv-x="791" 
d="M768 623v-109h-80v28h-200v-191h105v28h81v-135h-81v27h-105v-190h200v28h80v-109h-641l-92 92v439l92 92h641zM332 81l41 41v378l-41 42h-139l-42 -43v-376l42 -42h139z" />
    <glyph glyph-name="endash" unicode="&#x2013;" horiz-adv-x="696" 
d="M75 276v148h546v-148h-546z" />
    <glyph glyph-name="emdash" unicode="&#x2014;" horiz-adv-x="417" 
d="M17 70v176h383v-176h-383z" />
    <glyph glyph-name="quotedblleft" unicode="&#x201c;" horiz-adv-x="192" 
d="M207 408v179l126 125v-125h53v-179h-179zM368 426v144h-52v105l-92 -92v-157h144zM246 447v122l49 49v-70h52v-101h-101zM7 408v179l126 126v-126h53v-179h-179zM168 426v144h-52v104l-92 -91v-157h144zM46 447v122l49 49v-70h52v-101h-101z" />
    <glyph glyph-name="quotedblright" unicode="&#x201d;" horiz-adv-x="397" 
d="M186 700v-179l-126 -127v127h-53v179h179zM25 682v-144h52v-105l92 92v157h-144zM147 661v-122l-49 -50v71h-52v101h101zM386 700v-179l-126 -126v126h-53v179h179zM225 682v-144h52v-106l92 93v157h-144zM347 661v-122l-49 -49v70h-52v101h101z" />
    <glyph glyph-name="quoteleft" unicode="&#x2018;" horiz-adv-x="192" 
d="M7 408v179l126 126v-126h53v-179h-179zM168 426v144h-52v104l-92 -91v-157h144zM46 447v122l49 49v-70h52v-101h-101z" />
    <glyph glyph-name="quoteright" unicode="&#x2019;" horiz-adv-x="192" 
d="M186 700v-179l-126 -127v127h-53v179h179zM25 682v-144h52v-105l92 92v157h-144zM147 661v-122l-49 -50v71h-52v101h101z" />
    <glyph glyph-name="divide" unicode="&#xf7;" horiz-adv-x="491" 
d="M479 429v-157h-466v157h466zM29 412v-123h433v123h-433zM52 391v-81h389v81h-389zM157 57v179h179v-179h-179zM318 74v144h-144v-144h144zM196 96v101h101v-101h-101zM157 464v179h179v-179h-179zM318 481v144h-144v-144h144zM196 503v101h101v-101h-101z" />
    <glyph glyph-name="ydieresis" unicode="&#xff;" horiz-adv-x="637" 
d="M7 542v81h255v-81h-62l122 -156l120 156h-61v81h246v-81h-34l-214 -248v-213h42v-88h-198v88h41v213l-213 248h-44zM504 741q0 -28 -22 -47t-51 -19q-30 0 -52 18.5t-22 47.5t22 47.5t52 18.5q29 0 51 -18.5t22 -47.5zM301 741q0 -28 -22 -47t-51 -19q-30 0 -52 18.5
t-22 47.5t22 47.5t52 18.5q29 0 51 -18.5t22 -47.5z" />
    <glyph glyph-name="Ydieresis" unicode="&#x178;" horiz-adv-x="796" 
d="M7 542v158h332v-158h-6l63 -62l63 62h-8v158h323v-158h-57l-226 -226v-159h42v-157h-275v157h41v159l-226 226h-66zM80 559l236 -236v-182h-42v-125h243v125h-43v182l237 236h46v124h-289v-124h31l-103 -103l-103 103h29v124h-298v-124h56zM46 581v80h254v-80h-61
l156 -156l156 156h-61v80h246v-80h-32l-251 -249v-213h42v-88h-199v88h42v213l-250 249h-42zM590 834q0 -28 -22 -47t-51 -19q-30 0 -52 18.5t-22 47.5t22 47.5t52 18.5q29 0 51 -18.5t22 -47.5zM387 834q0 -28 -22 -47t-51 -19q-30 0 -52 18.5t-22 47.5t22 47.5t52 18.5
q29 0 51 -18.5t22 -47.5z" />
    <glyph glyph-name="currency" unicode="&#xa4;" horiz-adv-x="772" 
d="M638 365q0 -76 -63 -163l61 -62l-22 -25l-62 61q-83 -60 -163 -60q-85 0 -167 60l-62 -61l-24 25l61 62q-57 85 -57 161q0 80 58 168l-62 62l24 25l62 -61q92 55 167 55q76 0 158 -58l63 63l23 -24l-54 -57q59 -98 59 -171zM530 360q0 62 -39.5 105t-101.5 43t-101.5 -43
t-39.5 -105q0 -64 38.5 -102t102.5 -38t102.5 38t38.5 102z" />
    <glyph glyph-name="guilsinglleft" unicode="&#x2039;" horiz-adv-x="333" 
d="M246 107l-158 125v91l157 123l1 -88l-105 -81l104 -81z" />
    <glyph glyph-name="guilsinglright" unicode="&#x203a;" horiz-adv-x="333" 
d="M246 231l-158 -124v89l105 81l-105 81v89l158 -124v-92z" />
    <glyph glyph-name="daggerdbl" unicode="&#x2021;" horiz-adv-x="590" 
d="M371 8v-202h-165v202h-188v147h188v248h-188v147h188v203h165v-203h188v-147h-188v-248h188v-147h-188z" />
    <glyph glyph-name="periodcentered" unicode="&#xb7;" horiz-adv-x="368" 
d="M287 372q0 -43 -30 -73.5t-74 -30.5q-45 0 -75 29.5t-30 74.5t30.5 76t74.5 31q45 0 74.5 -31t29.5 -76z" />
    <glyph glyph-name="periodcentered" unicode="&#x2219;" horiz-adv-x="368" 
d="M287 372q0 -43 -30 -73.5t-74 -30.5q-45 0 -75 29.5t-30 74.5t30.5 76t74.5 31q45 0 74.5 -31t29.5 -76z" />
    <glyph glyph-name="quotesinglbase" unicode="&#x201a;" horiz-adv-x="272" 
d="M212 84q0 -135 -103 -202l-56 58q64 55 64 96q0 15 -1 19q-3 8 -16 8h-40v147h152v-126z" />
    <glyph glyph-name="quotedblbase" unicode="&#x201e;" horiz-adv-x="482" 
d="M424 84q0 -135 -103 -202l-56 58q64 54 64 96q0 15 -2 19q-3 8 -15 8h-40v147h152v-126zM212 84q0 -135 -103 -202l-56 58q64 55 64 96q0 15 -1 19q-3 8 -16 8h-40v147h152v-126z" />
    <glyph glyph-name="perthousand" unicode="&#x2030;" horiz-adv-x="1383" 
d="M35 286v343l69 70h214l69 -70v-344l-69 -69h-213zM282 0l350 700h95l-350 -700h-95zM109 233h204l57 58v334l-57 57h-204l-57 -57v-334zM368 13l337 674h-64l-337 -674h64zM108 309v297l50 50h106l50 -50v-296l-51 -51h-104zM344 39l312 622h8l-311 -622h-9zM161 277h99
l37 37v289l-36 36h-100l-36 -35l1 -292zM625 73v343l69 70h213l70 -71v-342l-70 -70h-212zM698 20h206l56 57v334l-57 58h-205l-56 -57v-335zM698 97v296l50 50h106l50 -50v-294l-40 -39h-128zM742 76h118l27 26v287l-37 37h-99l-36 -35v-289zM1005 73v343l69 70h213l70 -71
v-342l-70 -70h-212zM1079 20h205l56 57v334l-57 58h-204l-57 -57v-335zM1078 97v297l50 49h108l48 -48v-298l-51 -51h-103zM1132 64h98l36 36v290l-35 35h-99l-36 -36v-289z" />
    <glyph glyph-name="Acircumflex" unicode="&#xc2;" horiz-adv-x="669" 
d="M21 0v157h42l128 385h-31v158h372v-158h-35l128 -385h41v-157h-268v157h24l-11 33h-134l-12 -33h24v-157h-268zM272 17v124h-26l16 65h164l15 -65h-26v-124h235v124h-40l-134 418h39v124h-338v-124h34l-134 -418h-39v-124h234zM60 39v80h30l153 462h-44v80h295v-80h-49
l153 -462h30v-80h-191v80h38l-36 109h-191l-36 -109h38v-80h-190zM419 286l-75 228l-77 -228h152zM301 306l43 139l42 -139h-85zM367 324l-23 67l-23 -67h46zM521 842l-55 -70l-115 73l-116 -72l-54 70l171 114z" />
    <glyph glyph-name="Ecircumflex" unicode="&#xca;" horiz-adv-x="543" 
d="M21 0v157h42v385h-42v158h514v-186h-157v28h-123v-113h28v27h158v-212h-158v27h-28v-114h123v29h157v-186h-514zM518 17v152h-124v-28h-156v148h62v-28h124v178h-124v-28h-62v148h156v-28h124v152h-480v-124h41v-418h-41v-124h480zM60 39v80h41v462h-41v80h437v-108h-81
v28h-199v-191h105v28h80v-136h-80v28h-105v-191h199v28h81v-108h-437zM461 839l-55 -70l-115 73l-116 -72l-54 70l171 114z" />
    <glyph glyph-name="Aacute" unicode="&#xc1;" horiz-adv-x="667" 
d="M21 0v157h42l128 385h-31v158h372v-158h-35l128 -385h41v-157h-268v157h24l-11 33h-134l-12 -33h24v-157h-268zM272 17v124h-26l16 65h164l15 -65h-26v-124h235v124h-40l-134 418h39v124h-338v-124h34l-134 -418h-39v-124h234zM60 39v80h30l153 462h-44v80h295v-80h-49
l153 -462h30v-80h-191v80h38l-36 109h-191l-36 -109h38v-80h-190zM419 286l-75 228l-77 -228h152zM301 306l43 139l42 -139h-85zM367 324l-23 67l-23 -67h46zM487 901l-164 -134l-66 44l131 154z" />
    <glyph glyph-name="Edieresis" unicode="&#xcb;" horiz-adv-x="551" 
d="M21 0v157h42v385h-42v158h514v-186h-157v28h-123v-113h28v27h158v-212h-158v27h-28v-114h123v29h157v-186h-514zM518 17v152h-124v-28h-156v148h62v-28h124v178h-124v-28h-62v148h156v-28h124v152h-480v-124h41v-418h-41v-124h480zM60 39v80h41v462h-41v80h437v-108h-81
v28h-199v-191h105v28h80v-136h-80v28h-105v-191h199v28h81v-108h-437zM461 837q0 -28 -22 -47t-51 -19q-30 0 -52 18.5t-22 47.5t22 47.5t52 18.5q29 0 51 -18.5t22 -47.5zM258 837q0 -28 -22 -47t-51 -19q-30 0 -52 18.5t-22 47.5t22 47.5t52 18.5q29 0 51 -18.5t22 -47.5z
" />
    <glyph glyph-name="Egrave" unicode="&#xc8;" horiz-adv-x="549" 
d="M21 0v157h42v385h-42v158h514v-186h-157v28h-123v-113h28v27h158v-212h-158v27h-28v-114h123v29h157v-186h-514zM518 17v152h-124v-28h-156v148h62v-28h124v178h-124v-28h-62v148h156v-28h124v152h-480v-124h41v-418h-41v-124h480zM60 39v80h41v462h-41v80h437v-108h-81
v28h-199v-191h105v28h80v-136h-80v28h-105v-191h199v28h81v-108h-437zM344 814l-66 -43l-162 133l97 64z" />
    <glyph glyph-name="Iacute" unicode="&#xcd;" horiz-adv-x="304" 
d="M21 0v157h42v385h-42v158h276v-158h-42v-385h42v-157h-276zM280 17v123h-43v419h43v124h-242v-124h42v-419h-42v-123h242zM60 39v80h41v462h-41v80h199v-80h-42v-462h42v-80h-199zM279 904l-164 -134l-66 44l131 154z" />
    <glyph glyph-name="Icircumflex" unicode="&#xce;" horiz-adv-x="300" 
d="M21 0v157h42v385h-42v158h276v-158h-42v-385h42v-157h-276zM280 17v123h-43v419h43v124h-242v-124h42v-419h-42v-123h242zM60 39v80h41v462h-41v80h199v-80h-42v-462h42v-80h-199zM312 839l-55 -70l-115 73l-116 -72l-54 70l171 114z" />
    <glyph glyph-name="Idieresis" unicode="&#xcf;" horiz-adv-x="296" 
d="M21 0v157h42v385h-42v158h276v-158h-42v-385h42v-157h-276zM280 17v123h-43v419h43v124h-242v-124h42v-419h-42v-123h242zM60 39v80h41v462h-41v80h199v-80h-42v-462h42v-80h-199zM316 837q0 -28 -22 -47t-51 -19q-30 0 -52 18.5t-22 47.5t22 47.5t52 18.5q29 0 51 -18.5
t22 -47.5zM113 837q0 -28 -22 -47t-51 -19q-30 0 -52 18.5t-22 47.5t22 47.5t52 18.5q29 0 51 -18.5t22 -47.5z" />
    <glyph glyph-name="Igrave" unicode="&#xcc;" horiz-adv-x="302" 
d="M21 0v157h42v385h-42v158h276v-158h-42v-385h42v-157h-276zM280 17v123h-43v419h43v124h-242v-124h42v-419h-42v-123h242zM60 39v80h41v462h-41v80h199v-80h-42v-462h42v-80h-199zM218 811l-66 -43l-162 133l97 64z" />
    <glyph glyph-name="Oacute" unicode="&#xd3;" horiz-adv-x="599" 
d="M42 112v476l112 112h308l112 -112v-476l-112 -112h-308zM160 18h297l100 100v463l-102 102h-295l-100 -100v-465zM81 131v438l92 92h271l92 -92v-438l-92 -92h-271zM239 119h138l43 43v375l-44 44h-137l-43 -43v-376zM217 175v350l35 35h112l35 -35v-350l-35 -35h-112z
M257 157h102l22 22v341l-22 22h-103l-22 -22v-340zM474 904l-164 -134l-66 44l131 154z" />
    <glyph glyph-name="Ocircumflex" unicode="&#xd4;" horiz-adv-x="600" 
d="M42 112v476l112 112h308l112 -112v-476l-112 -112h-308zM160 18h297l100 100v463l-102 102h-295l-100 -100v-465zM81 131v438l92 92h271l92 -92v-438l-92 -92h-271zM239 119h138l43 43v375l-44 44h-137l-43 -43v-376zM217 175v350l35 35h112l35 -35v-350l-35 -35h-112z
M257 157h102l22 22v341l-22 22h-103l-22 -22v-340zM486 843l-55 -70l-115 73l-116 -72l-54 70l171 114z" />
    <glyph glyph-name="Ograve" unicode="&#xd2;" horiz-adv-x="606" 
d="M42 112v476l112 112h308l112 -112v-476l-112 -112h-308zM160 18h297l100 100v463l-102 102h-295l-100 -100v-465zM81 131v438l92 92h271l92 -92v-438l-92 -92h-271zM239 119h138l43 43v375l-44 44h-137l-43 -43v-376zM217 175v350l35 35h112l35 -35v-350l-35 -35h-112z
M257 157h102l22 22v341l-22 22h-103l-22 -22v-340zM358 814l-66 -43l-162 133l97 64z" />
    <glyph glyph-name="Uacute" unicode="&#xda;" horiz-adv-x="654" 
d="M29 542v158h276v-158h-42v-363l22 -22h103l22 22v363h-42v158h277v-158h-43v-430l-111 -112h-308l-112 112v430h-42zM87 559v-443l99 -99h302l98 98v444h41v124h-242v-124h43v-383l-36 -35h-110l-36 36v382h42v124h-242v-124h41zM68 581v80h199v-80h-42v-419l43 -43h137
l44 44v418h-42v80h199v-80h-42v-450l-92 -92h-270l-93 93v449h-41zM430 901l-164 -134l-66 44l131 154z" />
    <glyph glyph-name="Ucircumflex" unicode="&#xdb;" horiz-adv-x="647" 
d="M29 542v158h276v-158h-42v-363l22 -22h103l22 22v363h-42v158h277v-158h-43v-430l-111 -112h-308l-112 112v430h-42zM87 559v-443l99 -99h302l98 98v444h41v124h-242v-124h43v-383l-36 -35h-110l-36 36v382h42v124h-242v-124h41zM68 581v80h199v-80h-42v-419l43 -43h137
l44 44v418h-42v80h199v-80h-42v-450l-92 -92h-270l-93 93v449h-41zM491 842l-55 -70l-115 73l-116 -72l-54 70l171 114z" />
    <glyph glyph-name="Ugrave" unicode="&#xd9;" horiz-adv-x="659" 
d="M29 542v158h276v-158h-42v-363l22 -22h103l22 22v363h-42v158h277v-158h-43v-430l-111 -112h-308l-112 112v430h-42zM87 559v-443l99 -99h302l98 98v444h41v124h-242v-124h43v-383l-36 -35h-110l-36 36v382h42v124h-242v-124h41zM68 581v80h199v-80h-42v-419l43 -43h137
l44 44v418h-42v80h199v-80h-42v-450l-92 -92h-270l-93 93v449h-41zM404 815l-66 -43l-162 133l97 64z" />
    <glyph glyph-name="circumflex" unicode="&#x2c6;" horiz-adv-x="492" 
d="M434 589l-55 -70l-115 73l-116 -72l-54 70l171 114z" />
    <glyph glyph-name="tilde" unicode="&#x2dc;" horiz-adv-x="515" 
d="M444 643q-49 -94 -122 -94q-27 0 -75 23.5t-63 23.5q-29 0 -51 -44l-65 47q48 89 122 89q29 0 73 -24t60 -24q28 0 55 47z" />
    <glyph glyph-name="macron" unicode="&#xaf;" horiz-adv-x="512" 
d="M427 609h-334v76h334v-76z" />
    <glyph glyph-name="macron" unicode="&#x2c9;" horiz-adv-x="512" 
d="M427 609h-334v76h334v-76z" />
    <glyph glyph-name="cedilla" unicode="&#xb8;" horiz-adv-x="372" 
d="M306 -53l-117 -144l-79 53l121 134z" />
    <glyph glyph-name="Scaron" unicode="&#x160;" horiz-adv-x="604" 
d="M35 112v134h192v-66l24 -23h100l23 22v69l-22 21h-205l-112 112v207l112 112h308l112 -112v-138h-193v70l-22 22h-104l-21 -22v-71l22 -22h206l112 -112v-203l-112 -112h-308zM152 17h298l100 99v196l-99 98h-206l-34 35v79l34 35h111l35 -35v-57h159v117l-99 99h-300
l-99 -99v-199l99 -99h205l35 -34v-76l-36 -35h-109l-35 35v53h-159v-113zM74 131v77h115v-46l43 -43h138l43 44v100l-44 45h-202l-93 93v168l92 92h270l93 -94v-79h-116v48l-44 45h-137l-43 -43v-106l43 -43h204l93 -94v-164l-91 -92h-273zM466 880l-171 -112l-170 113
l52 68l118 -69l120 69z" />
    <glyph glyph-name="scaron" unicode="&#x161;" horiz-adv-x="520" 
d="M35 92v77h116v-46l42 -42h139l42 42v104l-42 42h-205l-92 93v169l92 92h271l92 -92v-81h-116v49l-42 43h-139l-42 -43v-105l42 -44h205l92 -92v-166l-92 -92h-271zM451 791l-171 -112l-170 113l52 68l118 -69l120 69z" />
    <glyph glyph-name="brokenbar" unicode="&#xa6;" horiz-adv-x="260" 
d="M58 475v347h145v-347h-145zM58 -4v365h145v-365h-145z" />
    <glyph glyph-name="Eth" unicode="&#xd0;" horiz-adv-x="591" 
d="M7 0v157h42v125h-49v134h49v126h-42v158h433l112 -112v-476l-111 -112h-434zM46 39v80h41v163h-22v-141h-41v-124h413l98 98v470l-98 98h-413v-124h41v-143h22v165h-41v80h375l92 -92v-438l-93 -92h-374zM224 141v141h-21v-163h153l42 43v376l-43 43h-152v-165h21v143
h118l35 -34v-348l-36 -36h-117zM336 157l24 23v341l-22 21h-97v-126h82v-134h-82v-125h95z" />
    <glyph glyph-name="eth" unicode="&#xf0;" horiz-adv-x="593" 
d="M344 571q-21 25 -55 63l-126 -63l-80 81l111 53q-5 4 -40 21l-56 28l132 63q64 -28 93 -49l107 51l90 -75l-110 -53q84 -87 124 -189q33 -83 33 -180q0 -141 -61 -229q-70 -103 -205 -103q-123 0 -199 86q-72 83 -72 207q0 123 67 206q72 89 190 89q30 0 57 -7zM388 409
q-33 43 -90 43q-63 0 -97 -54q-29 -46 -29 -113q0 -70 28 -115q34 -54 99 -54q62 0 96 55q29 47 29 113q0 78 -36 125z" />
    <glyph glyph-name="Yacute" unicode="&#xdd;" horiz-adv-x="776" 
d="M7 542v158h332v-158h-6l63 -62l63 62h-8v158h323v-158h-57l-226 -226v-159h42v-157h-275v157h41v159l-226 226h-66zM80 559l236 -236v-182h-42v-125h243v125h-43v182l237 236h46v124h-289v-124h31l-103 -103l-103 103h29v124h-298v-124h56zM46 581v80h254v-80h-61
l156 -156l156 156h-61v80h246v-80h-32l-251 -249v-213h42v-88h-199v88h42v213l-250 249h-42zM549 906l-164 -134l-66 44l131 154z" />
    <glyph glyph-name="yacute" unicode="&#xfd;" horiz-adv-x="628" 
d="M7 542v81h255v-81h-62l122 -156l120 156h-61v81h246v-81h-34l-214 -248v-213h42v-88h-198v88h41v213l-213 248h-44zM497 805l-164 -134l-66 44l131 154z" />
    <glyph glyph-name="Thorn" unicode="&#xde;" horiz-adv-x="559" 
d="M355 384l43 44v110l-43 43h-152v-197h152zM201 683v-23l220 1l92 -92v-173l-92 -93h-218v-184h42v-80h-199v80h41v448v0v116h-22v-542h-41v-124h242v124h-42v141h213l98 99v204l-98 98h-236zM87 862h113q0 -1 1 -162h239l112 -112v-211l-112 -112h-199v-108h42v-157h-276
v157h42v543h38v162zM224 406v153h118l35 -35v-82l-36 -36h-117zM338 423l22 22v75l-22 22h-97v-119h97z" />
    <glyph glyph-name="thorn" unicode="&#xfe;" horiz-adv-x="482" 
d="M316 346l44 43v110l-44 43h-152v-196h152zM47 862h114q-1 -10 0 -239h222l92 -92v-173l-92 -93h-219v-184h42v-81h-199v81h42v461h-42v81h40v239z" />
    <glyph glyph-name="minus" unicode="&#xad;" horiz-adv-x="584" 
d="M3 181v144h577v-144h-577z" />
    <glyph glyph-name="minus" unicode="&#x2212;" horiz-adv-x="584" 
d="M3 181v144h577v-144h-577z" />
    <glyph glyph-name="multiply" unicode="&#xd7;" horiz-adv-x="665" 
d="M534 -29l-202 201l-202 -203l-100 103l201 201l-203 202l103 100l201 -200l202 200l100 -100l-200 -202l200 -202z" />
    <glyph glyph-name="Lslash" unicode="&#x141;" horiz-adv-x="616" 
d="M57 0v157h42v165l-109 -46v48l109 47v171h-42v158h276v-158h-42v-89l189 81v-49l-189 -81v-247h126v42h158v-199h-518zM137 387v194h-41v80h199v-80h-42v-144l21 9v113h42v124h-242v-124h41v-182zM96 39v80h41v220l-22 -9v-189h-41v-124h484v165h-124v-41h-160v256
l-21 -9v-269h202v42h81v-122h-440z" />
    <glyph glyph-name="lslash" unicode="&#x142;" horiz-adv-x="545" 
d="M67 0v81h42v246l-119 -51v48l119 52v166h-42v81h199v-81h-42v-116l146 63v-49l-146 -63v-296h203v41h81v-122h-441z" />
    <glyph glyph-name="HT" horiz-adv-x="282" 
 />
    <glyph glyph-name="Zcaron" unicode="&#x17d;" horiz-adv-x="568" 
d="M7 0v133l273 409h-116v-41h-157v199h523v-133l-273 -410h115v42h158v-199h-523zM513 17v165h-124v-41h-156l280 430v112h-489v-166h123v42h157l-280 -430v-112h489zM46 39v80l307 462h-228v-42h-79v122h445v-80l-308 -462h227v42h81v-122h-445zM475 882l-171 -112
l-170 113l52 68l118 -69l120 69z" />
    <glyph glyph-name="zcaron" unicode="&#x17e;" horiz-adv-x="477" 
d="M7 0v81l308 461h-228v-41h-80v122h446v-81l-308 -461h227v41h81v-122h-446zM426 788l-171 -112l-170 113l52 68l118 -69l120 69z" />
    <glyph glyph-name="notequal" unicode="&#x2260;" horiz-adv-x="671" 
d="M318 106l-101 -180l-112 63l64 117h-138v129h209l40 72h-249v128h321l101 184l113 -63l-66 -121h147v-128h-218l-40 -72h258v-129h-329z" />
    <glyph glyph-name="infinity" unicode="&#x221e;" horiz-adv-x="742" 
d="M716 276q0 -57 -41 -102.5t-98 -45.5q-58 0 -117 36q-26 16 -47 35q-10 9 -42 41q-22 -23 -68 -63q-66 -48 -137 -48q-58 0 -98.5 45t-40.5 103q0 61 43.5 102t104.5 41q67 0 162 -80l35 -30l10 8q25 23 77 65q54 37 111 37q60 0 103 -42t43 -102zM662 270q0 38 -27 67
t-65 29q-52 0 -127 -61l-27 -22l-9 -8l10 -11q39 -43 85 -69q28 -16 66 -16q39 0 66.5 26t27.5 65zM337 275l-9 8q-47 42 -88 64q-34 18 -65 18q-39 0 -67 -27t-28 -66t28.5 -66t67.5 -27q65 0 141 76z" />
    <glyph glyph-name="lessequal" unicode="&#x2264;" horiz-adv-x="669" 
d="M44 449v108l588 273v-142l-400 -185l400 -185v-141zM44 5v128h588v-128h-588z" />
    <glyph glyph-name="greaterequal" unicode="&#x2265;" horiz-adv-x="669" 
d="M632 449v108l-588 273v-142l400 -185l-400 -185v-141zM632 5v128h-588v-128h588z" />
    <glyph glyph-name="partialdiff" unicode="&#x2202;" horiz-adv-x="514" 
d="M480 417q0 -161 -49 -278q-66 -160 -205 -160q-85 0 -142 58.5t-57 143.5q0 93 55 162q59 75 150 75q70 0 147 -62l10 -8q11 72 11 111q0 70 -19 135q-25 83 -72 111q-39 23 -87 23q-26 0 -49 -8q-5 -2 -46 -19l-19 -8l-40 53l12 4l23 8l12 3l22 5q40 9 62 9
q138 0 214 -114q67 -99 67 -244zM380 311q-53 65 -109 65q-75 0 -118 -78q-35 -64 -35 -146q0 -56 18 -93q24 -49 74 -49q92 0 138 144q25 79 32 157z" />
    <glyph glyph-name="summation" unicode="&#x2211;" horiz-adv-x="742" 
d="M723 121l-3 -14l-17 -72l-18 -89l-7 -58l-75 11l-588 -3l363 414l-361 471l83 -6h542l7 -167h-23l-3 13q-14 59 -47 85q-29 21 -92 21h-287l281 -371l-304 -352h404q48 0 78 37q21 25 41 80h26z" />
    <glyph glyph-name="product" unicode="&#x220f;" horiz-adv-x="856" 
d="M835 -105h-319v25q100 0 100 75v728h-371v-733q0 -70 100 -70v-25h-319v25q100 0 100 70v676q0 42 -26 66t-68 24h-4v25h804v-25h-4q-94 0 -94 -101v-660q0 -75 101 -75v-25z" />
    <glyph glyph-name="pi" unicode="&#x3c0;" horiz-adv-x="571" 
d="M551 158q0 -65 -28 -114q-35 -60 -95 -60q-47 0 -74 49q-30 55 -27 134l3 77l18 173h-116l-1 -16q-6 -98 -27 -240q-15 -102 -28 -137q-16 -44 -61 -44q-25 0 -41 17t-16 43q0 13 8 21l50 67q17 17 21 48l30 241h-23q-47 0 -69 -13q-18 -12 -46 -54h-19q15 45 23 63
q14 31 37 56q33 37 80 37h393v-89h-130l-1 -13q-12 -156 -12 -207v-8q0 -109 65 -109q55 0 63 78h23z" />
    <glyph glyph-name="integral" unicode="&#x222b;" horiz-adv-x="285" 
d="M303 894q0 -47 -58 -47q-6 0 -14 4l-22 17q-4 1 -10 5q-23 0 -21 -34l1 -22l15 -187q5 -62 5 -233q0 -158 -5 -223q-13 -175 -53 -248q-20 -36 -80 -36q-25 0 -42 20t-17 45q0 20 23 34q15 9 25 9q12 0 48 -32q37 3 34 93l-8 261l1 285q0 133 11 199q24 147 99 147
q28 0 48 -15t20 -42z" />
    <glyph glyph-name="Omega" unicode="&#x3a9;" horiz-adv-x="799" 
d="M765 0h-306l16 158q52 21 78 48q69 70 69 211q0 119 -51 187q-58 78 -172 78q-111 0 -169 -79q-52 -70 -52 -185q0 -142 72 -214q27 -27 77 -46l16 -158h-308v168h18q6 -24 10 -32q8 -20 21 -24q26 -10 108 -8l92 2l-2 28q-89 27 -131 65q-95 85 -95 215q0 140 105 224
q97 78 240 78q142 0 239 -78q105 -84 105 -223q0 -73 -34 -139q-36 -69 -97 -103q-40 -22 -94 -39l-2 -28q16 0 47 -1t47 -1q87 0 105 7q21 14 29 45l3 12h16v-168z" />
    <glyph glyph-name="Omega" unicode="&#x2126;" horiz-adv-x="799" 
d="M765 0h-306l16 158q52 21 78 48q69 70 69 211q0 119 -51 187q-58 78 -172 78q-111 0 -169 -79q-52 -70 -52 -185q0 -142 72 -214q27 -27 77 -46l16 -158h-308v168h18q6 -24 10 -32q8 -20 21 -24q26 -10 108 -8l92 2l-2 28q-89 27 -131 65q-95 85 -95 215q0 140 105 224
q97 78 240 78q142 0 239 -78q105 -84 105 -223q0 -73 -34 -139q-36 -69 -97 -103q-40 -22 -94 -39l-2 -28q16 0 47 -1t47 -1q87 0 105 7q21 14 29 45l3 12h16v-168z" />
    <glyph glyph-name="radical" unicode="&#x221a;" horiz-adv-x="571" 
d="M536 947l-155 -989l-254 524l-100 -49l-18 35l154 75l204 -417l131 827z" />
    <glyph glyph-name="approxequal" unicode="&#x2248;" horiz-adv-x="571" 
d="M548 385q-52 -84 -149 -84l-18 3l-179 50q-18 5 -38 5q-59 0 -104 -63l-45 30q67 82 153 82l33 -3l174 -48l25 -4q62 0 110 57zM548 228q-53 -84 -147 -84q-10 0 -21 3l-178 50q-18 5 -40 5q-56 0 -102 -62l-46 28q64 83 154 83q16 0 35 -5l172 -46l24 -4q62 0 110 58z
" />
    <glyph glyph-name="approxequal" unicode="&#x22f2;" horiz-adv-x="571" 
d="M548 385q-52 -84 -149 -84l-18 3l-179 50q-18 5 -38 5q-59 0 -104 -63l-45 30q67 82 153 82l33 -3l174 -48l25 -4q62 0 110 57zM548 228q-53 -84 -147 -84q-10 0 -21 3l-178 50q-18 5 -40 5q-56 0 -102 -62l-46 28q64 83 154 83q16 0 35 -5l172 -46l24 -4q62 0 110 58z
" />
    <glyph glyph-name="Delta" unicode="&#x394;" horiz-adv-x="636" 
d="M632 0h-626l333 717zM502 52l-200 484l-226 -484h426z" />
    <glyph glyph-name="Delta" unicode="&#x2206;" horiz-adv-x="636" 
d="M632 0h-626l333 717zM502 52l-200 484l-226 -484h426z" />
    <glyph glyph-name="lozenge" unicode="&#x25ca;" horiz-adv-x="514" 
d="M485 392l-201 -392h-64l-201 392l200 383h65zM421 392l-169 325l-170 -325l170 -334z" />
    <glyph glyph-name="fraction" unicode="&#x2044;" horiz-adv-x="494" 
d="M507 700l-450 -700h-90l452 700h88z" />
    <glyph glyph-name="fi" unicode="&#xf001;" horiz-adv-x="680" 
d="M7 0v81h42v461h-42v81h437v-109h-80v28h-200v-191h105v28h81v-135h-81v27h-105v-190h81v-81h-238zM467 0v81h42v461h-42v81h199v-81h-42v-461h42v-81h-199z" />
    <glyph glyph-name="fl" unicode="&#xf002;" horiz-adv-x="928" 
d="M7 0v81h42v461h-42v81h437v-109h-80v28h-200v-191h105v28h81v-135h-81v27h-105v-190h81v-81h-238zM467 0v81h42v461h-42v81h199v-81h-42v-461h203v41h81v-122h-441z" />
    <glyph glyph-name="apple" unicode="&#xf000;" horiz-adv-x="822" 
d="M555 708q0 -65 -45 -117t-109 -52q0 75 40 122.5t114 57.5v-11zM724 176q-82 -204 -176 -204q-21 0 -42 9l-42 18q-9 4 -33 4q-37 0 -55 -5l-44 -19q-19 -8 -40 -8q-58 0 -115 85q-88 131 -88 262q0 95 49 159q54 70 146 70q33 0 81 -19q31 -12 49 -12t45 10q63 23 95 23
q96 0 150 -74q-83 -65 -83 -145q0 -112 103 -154z" />
    <glyph glyph-name="dotlessi" unicode="&#x131;" horiz-adv-x="213" 
d="M7 0v81h42v461h-42v81h199v-81h-42v-461h42v-81h-199z" />
    <glyph glyph-name="breve" unicode="&#x2d8;" horiz-adv-x="512" 
d="M423 685q-8 -64 -54.5 -101.5t-112.5 -37.5q-65 0 -111 37.5t-56 101.5h79q22 -53 88 -53q67 0 89 53h78z" />
    <glyph glyph-name="dotaccent" unicode="&#x2d9;" horiz-adv-x="392" 
d="M299 619q0 -29 -21.5 -47.5t-51.5 -18.5t-52 18.5t-22 47.5t22 46.5t52 17.5q29 0 51 -17.5t22 -46.5z" />
    <glyph glyph-name="ring" unicode="&#x2da;" horiz-adv-x="477" 
d="M340 609q0 -45 -31.5 -70.5t-78.5 -25.5q-45 0 -75 25q-33 27 -33 71q0 45 32 73q30 25 76 25t77 -25q33 -28 33 -73zM269 610q0 32 -39 32q-38 0 -38 -32q0 -33 38 -33q39 0 39 33z" />
    <glyph glyph-name="hungarumlaut" unicode="&#x2dd;" horiz-adv-x="522" 
d="M469 679l-112 -161l-79 13l77 169zM292 684l-109 -158l-79 13l73 165z" />
    <glyph glyph-name="ogonek" unicode="&#x2db;" horiz-adv-x="311" 
d="M235 -123l-17 -59q-31 -20 -70 -20q-40 0 -70 20q-35 23 -35 61q0 34 28 70q25 33 59 51h65v-11q-20 -11 -38 -35q-21 -26 -21 -46q0 -33 44 -33q24 0 51 21z" />
    <glyph glyph-name="caron" unicode="&#x2c7;" horiz-adv-x="462" 
d="M396 635l-171 -112l-170 113l52 68l118 -69l120 69z" />
    <glyph glyph-name="glyph107" horiz-adv-x="280" 
 />
    <glyph glyph-name="glyph243" horiz-adv-x="282" 
 />
    <glyph glyph-name="glyph244" horiz-adv-x="282" 
 />
    </font>
</defs>
</svg>
