<?xml version="1.0" encoding="utf-8"?>
<!-- Generator: Adobe Illustrator 15.0.0, SVG Export Plug-In . SVG Version: 6.00 Build 0)  -->
<!DOCTYPE svg PUBLIC "-//W3C//DTD SVG 1.1//EN" "http://www.w3.org/Graphics/SVG/1.1/DTD/svg11.dtd">
<svg version="1.1" id="Layer_1" xmlns="http://www.w3.org/2000/svg" xmlns:xlink="http://www.w3.org/1999/xlink" x="0px" y="0px"
	 width="1190.55px" height="841.89px" viewBox="0 0 1190.55 841.89" enable-background="new 0 0 1190.55 841.89"
	 xml:space="preserve">
<g>
	<path fill-rule="evenodd" clip-rule="evenodd" fill="#FFFFFF" d="M507.529,246.14c-5.838,15.319-15.911,34.609-13.708,49.53
		c2.416,1.962,6.125,1.036,9.189,1.716c1.314-2.662,1.168-3.166,2.283-6.256c7.113,1.79,12.949,5.238,17.715,9.735
		c-6.184,1.307-12.221,2.931-15.374,10.75c-7.072-4.249-15.853-9.761-25.246-7.03c-4.986,1.45-12.386,5.466-14.801,7.688
		c-13.448,12.368-12.844,37.804-5.917,49.1c-10.189-4.393-21.85-8.613-30.631-5.722c-4.308,9.535,2.405,17.206,7.765,23.555
		c-0.795,5.032,1.05,8.834,1.737,13.176c-13.782-8.108-19.066-23.62-24.733-36.834c-3.234-15.807-1.198-28.981,3.29-47.878
		c1.171-4.931,4.148-12.387,7.284-16.974c16.685-24.411,47.163-42.846,75.503-45.524
		C503.392,245.029,505.397,245.599,507.529,246.14z M474.525,290.266c-15.762,1.888-37.787,17.944-47.396,37.239
		c-2.522,5.065-3.632,11.572-5.489,16.539c-2.151,5.756-4.393,9.464,1.431,12.519c5.477-5.449,4.66-15.405,8.428-23.1
		c10.346-21.126,25.537-33.82,44.593-35.535c2.226-0.201,7.099,1.5,7.707-3.187C482.202,291.57,476.996,289.971,474.525,290.266z"/>
	<path fill-rule="evenodd" clip-rule="evenodd" d="M465.777,243.995c-4.58-2.093-15.353-1.418-17.325-6.321
		c1.007-2.701,3.941-1.261,6.653-0.299C458.638,236.853,468.021,238.529,465.777,243.995z"/>
	<path fill-rule="evenodd" clip-rule="evenodd" d="M435.791,249.959c-0.099,1.505-1.133,1-1.359,2.231
		c-4.869,0.105-8.148-2.542-11.199-5.177C424.572,241.816,433.333,248.338,435.791,249.959z"/>
	<path fill-rule="evenodd" clip-rule="evenodd" d="M431.05,262.953c1.809,1.953-2.424,4.835-3.421,6.386
		c-11.062-4.993-15.725-13.053-29.48-17.845c0.663-2.297,2.47-2.134,3.505-3.629C409.587,253.173,423.31,259.464,431.05,262.953z"/>
	<path fill-rule="evenodd" clip-rule="evenodd" d="M483.799,294.74c-0.608,4.687-5.481,2.986-7.707,3.187
		c-19.057,1.715-34.247,14.409-44.593,35.535c-3.769,7.695-2.952,17.651-8.428,23.1c-5.824-3.055-3.583-6.763-1.431-12.519
		c1.857-4.967,2.966-11.474,5.489-16.539c9.609-19.295,31.634-35.351,47.396-37.239C476.996,289.971,482.202,291.57,483.799,294.74z
		"/>
	<path fill-rule="evenodd" clip-rule="evenodd" fill="#FFFFFF" d="M493.743,327.271c-5.743,2.276-10.265,8.11-13.189,13.729
		c-6.18,0.914-4.926,5.357-4.52,10.893c0.652,8.885,3.538,16.806,11.271,19.926c2.098-0.07,2.958-2.801,4.949-3.103
		c3.43,0.502,6.855,0.995,8.493-2.354c-1.082-0.296-1.388-0.953-0.917-1.971c-9.082-0.781-17.135-3.218-16.662-12.623
		c0.488-9.694,10.344-23.578,19.627-17.923c1.52,2.09,1.253,5.01,5.508,5.827C513.499,330.157,500.767,324.485,493.743,327.271z
		 M504.168,359.976c1.326,1.966,4.552,2.984,6.432,1.801c1.275-2.191,0.506-3.432,0.793-5.163
		C508.062,353.411,504.833,354.913,504.168,359.976z M534.487,371.037c0.747-8.161-14.98-8.492-13.787,0.423
		c2.984,2.096,5.117-2.137,6.653-0.299c-1.089,2.525-3.353,2.526-4.208,5.553c1.317,0.32-0.302,2.006,1.398,2.146
		C528.787,378.909,534.062,375.68,534.487,371.037z"/>
	<path fill-rule="evenodd" clip-rule="evenodd" d="M508.304,339.671c-4.255-0.816-3.988-3.737-5.508-5.827
		c-9.283-5.654-19.139,8.229-19.627,17.923c-0.474,9.405,7.58,11.842,16.662,12.623c-0.47,1.018-0.165,1.675,0.917,1.971
		c-1.638,3.349-5.063,2.856-8.493,2.354c-1.992,0.301-2.852,3.032-4.949,3.103c-7.733-3.121-10.619-11.042-11.271-19.926
		c-0.406-5.536-1.661-9.979,4.52-10.893c2.924-5.618,7.446-11.452,13.189-13.729C500.767,324.485,513.499,330.157,508.304,339.671z"
		/>
	<path fill-rule="evenodd" clip-rule="evenodd" d="M725.163,119.253c6.58,0.717,11.115-4.322,16.906-6.147
		c5.989-1.888,13.357-3.02,19.979-4.098c15.427-2.512,28.641-3.922,45.594-1.537c12.4,1.744,30.683-1.469,30.225,11.782
		c-0.23,6.65-17.119,15.34-24.078,17.417c-7.87,2.351-16.081,2.964-24.589,4.611c-7.247,1.402-14.913,3.326-19.979,3.586
		c-9.775,0.501-18.148-0.491-26.639-0.513c-11.231-0.028-37.683,2.886-33.811-11.782
		C710.59,125.681,719.864,123.417,725.163,119.253z M744.118,120.277c-0.116,1.145,1.703,6.131-1.537,6.66
		c-3.571,1.08-7.736-2.778-12.807-2.562c-5.449,0.233-14.812,6.311-14.344,9.733c0.748,5.473,29.315,4.812,40.47,4.099
		c18.548-1.188,33.89-3.568,51.229-7.685c6.304-1.496,23.953-7.075,22.54-12.807c-0.54-2.19-9.193-5.135-14.344-4.098
		c-2.814,0.567-4.382,3.317-7.684,4.611c-10.143,3.972-25.657,6.473-37.909,8.196c-5.606,0.789-15.401,3.205-17.93-3.586
		c8.17-3.343,18.793-2.007,28.175-3.586c3.704-0.624,7.388-2.274,10.758-3.074c3.902-0.926,8.602-0.265,10.758-3.586
		C780.888,110.359,759.914,114.524,744.118,120.277z"/>
	<path fill-rule="evenodd" clip-rule="evenodd" d="M506.304,341.833c-0.287,1.731,0.482,2.972-0.793,5.163
		c-1.88,1.184-5.106,0.166-6.432-1.801C499.744,340.133,502.973,338.631,506.304,341.833z"/>
	<path fill-rule="evenodd" clip-rule="evenodd" d="M524.544,378.861c-1.701-0.141-0.081-1.827-1.398-2.146
		c0.855-3.027,3.119-3.028,4.208-5.553c-1.536-1.838-3.669,2.395-6.653,0.299c-1.193-8.915,14.534-8.584,13.787-0.423
		C534.062,375.68,528.787,378.909,524.544,378.861z"/>
	<path fill-rule="evenodd" clip-rule="evenodd" fill="#FFFFFF" d="M449.807,362.5c-1.743,0.274-7.666-1.031-9.762,1.346
		c-0.116,2.185,1.079,3.76,3.759,4.644c-0.401,2.45-0.156,4.601,0.299,6.653c-4.701-3.779-9.746-9.168-7.03-15.107
		C440.946,360.057,445.251,361.01,449.807,362.5z"/>
	<path fill-rule="evenodd" clip-rule="evenodd" fill="#FFFFFF" d="M524.974,427.005c-1.238,3.923-6.066,0.131-8.012,2.53
		c-3.811-1.62-4.88-2.715-8.617-4.78C513.571,423.062,522.963,418.511,524.974,427.005z"/>
	<path fill-rule="evenodd" clip-rule="evenodd" fill="#FFFFFF" d="M500.118,423.39c6.849,2.867,7.336,6.435,12.681,10.081
		c5.291-1.264,11.651,1.406,16.59-2.128c6.338,5.042,7.588,12.45,13.111,17.871c3.46,9.976,11.022,19.915,11.258,31.918
		c-27.372-5.872-49.918-1.376-72.22,3.644c-0.131-8.196,2.352-17.609,1.034-25.253c-0.896-3.046-1.615-6.174-1.346-9.761
		c1.385-0.457,2.807-0.838,3.941-1.835c-1.458-5.291-7.744-12.782-15.563-17.13c-7.292-4.053-16.445-9.753-23.49-11.842
		c-7.689-2.279-13.56,2.545-19.218,3.35c-1.785,3.719-8.377,5.411-13.403,9.834c-4.818,4.239-7.107,10.74-12.968,11.627
		c-4.864,0.736-11.52-1.346-12.948-6.359c7.475-14.549,17-21.37,27.561-29.208c4.188-3.107,10.65-7.896,16.466-9.261
		c8.19-1.923,21.771,2.465,32.381,6.906c3.726,1.56,5.729,3.837,10.542,5.482c5.433,1.857,12.13,2.251,15.4,5.619
		C492.419,419.513,493.335,426.783,500.118,423.39z M531.452,467.541c1.981,2.006,3.501,2.139,6.256,2.282
		c1.252-2.255,1.135-2.655,1.274-4.987C535.885,460.291,530.547,461.653,531.452,467.541z"/>
	<path fill-rule="evenodd" clip-rule="evenodd" d="M538.982,464.836c-0.139,2.332-0.022,2.732-1.274,4.987
		c-2.755-0.144-4.275-0.276-6.256-2.282C530.547,461.653,535.885,460.291,538.982,464.836z"/>
	<path fill-rule="evenodd" clip-rule="evenodd" fill="#FFFFFF" d="M617.089,522.779c2.013-2.338,0.407-5.396,3.114-7.043
		c1.123,0.409,2.246,0.819,3.369,1.229c-0.017,3.204-3.356,7.955-0.272,9.717c3.824,1.635,4.253-4.023,8.013-2.53
		c1.521,2.419-1.425,2.451-1.932,5.293c-0.217,1.033,0.957,1.419,0.74,2.452c2.48,1.035,4.068,0.157,6.302,0.663
		c-0.646,2.331-2.964,1.073-4.116,2.315c-6.558,14.604-20.86,22.827-31.195,31.697c-8.629,7.405-19.135,25.229-30.521,13.404
		c1.846-1.487,3.3,1.557,5.293,1.932c3.755,0.706,7.599-1.653,9.546-5.241c-1.31-3.242-5.459-1.184-7.746-1.19
		c-2.278-0.538-2.529-2.02-3.805-3.023c-11.495-0.622-27.834-8.469-34.383-16.363c-3.525-4.249-6.504-10.974-11.674-11.348
		c-2.737-0.198-2.082,1.877-4.468,3.278c-2.51,1.474-6.619,1.994-9.982,3.446c-11.56,4.989-29.605,12.491-44.6,1.178
		c1.124-9.29,5.882-16.623,10.223-23.536c8.04-7.811,18.605-16.362,30.221-20.057c5.565-1.77,10.03-3.354,15.536,0.761
		c4.364-0.64,8.472-1.829,14.398,0.891c-4.792,1.592-12.377,1.573-13.052,8.871c-0.664,7.177,14.153,11.744,16.935,2.906
		c1.654,0.694,3.127,0.997,4.201,0.442c1.166,1.456,0.658,3.689,1.964,5.08c1.311,0.744,3.496-0.984,3.72,0.267
		c7.448,5.661,10.893,13.593,19.191,20.634c2.168,1.839,5.708,3.576,8.266,5.743c3.502,2.965,5.064,5.646,7.128,5.872
		c7.646,0.834,5.782-11.623-1.256-13.001c5.387-5.021,9.144-13.549,13.546-20.687c3.675,3.084,11.612-1.698,5.17-5.203
		c3.759-1.875,6.89-6.441,3.031-9.8c-3.395-2.213-6.785-0.568-8.838-2.68c2.197-7.356,11.583-3.353,12.428,1.808
		C610.028,516.204,610.47,523.896,617.089,522.779z"/>
	<path fill-rule="evenodd" clip-rule="evenodd" fill="#FFFFFF" d="M511.825,485.464c-0.833,1.357-2.932-0.003-3.766,1.354
		C507.254,485.308,510.25,484.705,511.825,485.464z"/>
	<path fill-rule="evenodd" clip-rule="evenodd" fill="#FFFFFF" d="M418.885,465.188c-2.265-2.191-0.313-9.068-6.12-7.14
		c-3.697,7.979,2.821,11.206,4.228,16.812c1.73,0.568,2.399-1.143,4.376-0.04c0.783,3.18-1.569,5.195-3.29,7.524
		c-1.942-0.167-3.366,0.78-5.515,0.169c-9.029,10.04-27.472,11.409-31.815-3.974c-1.326-4.694-2.18-21.58,3.921-24.198
		c7.513,2.626,12.942,3.78,18.118,1.157c3.377-1.711,6.497-6.232,12.87-2.394C417.065,456.787,423.106,461.416,418.885,465.188z"/>
	<path fill-rule="evenodd" clip-rule="evenodd" fill="#FFFFFF" d="M559.325,513.701c0.89,3.848,1.764,7.703,0.95,12.343
		C556.587,523.499,559.443,517.908,559.325,513.701z"/>
	<path fill-rule="evenodd" clip-rule="evenodd" fill="#FFFFFF" d="M450.719,531.88c-1.916,4.753-3.229,10.805-6.36,12.948
		c-2.679-0.884-2.011-3.325-2.445-5.255c-1.814-1.038-2.916-0.541-4.507-1.099C441.377,535.787,446.106,530.34,450.719,531.88z"/>
	<path fill-rule="evenodd" clip-rule="evenodd" fill="#FFFFFF" d="M432.38,532.823c-3.735,4.854-9.578,5.176-14.626,7.205
		c-0.669,1.777-0.278,3.061,0.04,4.378c2.845,1.933,3.657,0.788,6.256,2.282c-2.546,1.109-5.93,0.421-8.012,2.529
		c-0.884,2.942,2.058,4.104,2.575,6.393c-0.748,4.002-5.129,5.573-8.324,7.87c-7.268,5.223-13.178,10.209-22.554,12.493
		c-6.293,1.532-15.56,0.605-18.99-4.748c1.574-2.158,2.688-3.515,0.312-5.339c1.34-1.411,3.672-0.693,4.162-3.934
		c-7.282-3.724-16.436-7.612-9.742-16.643c1.956-0.949,4.764-0.065,7.746,1.189c0.511,2.051-1.619,2.86-0.618,4.683
		c22.205,12.409,35.63-23.173,50.362-27.432C428.026,521.709,430.791,527.129,432.38,532.823z"/>
	<path fill-rule="evenodd" clip-rule="evenodd" d="M602.737,715.577c-1.535,1.71-2.549,3.94-3.586,6.148
		c-1.761,0.224-2.871-0.203-4.098-0.513c-1.981,1.264-1.851,4.639-4.611,5.123c-2.823-2.417-8.966-3.175-11.782-1.537
		c-8.782-3.799-22.814-0.656-27.151,6.147c-2.201,0.493-0.898-2.517-2.562-2.562c-1.837-0.13-1.877,1.538-3.586,1.537
		c-1.119-0.589-1.647-1.769-2.049-3.074c-4.175-0.676-8.341,1.815-10.246-1.024c-4.747,2.275-9.523,0.962-13.832,2.562
		c-3.492,1.296-6.382,5.58-13.319,4.61c-1.779-0.271-2.711-1.388-4.098-2.049c-2.609,1.831-3.787,5.093-7.172,6.147
		c-2.617-1.397-4.99-4.306-9.221-2.562c-1.135-0.914-1.556-2.543-3.586-2.562c-2.893-0.16-3.273,2.191-5.123,3.073
		c-4.921-0.031-9.006-0.897-10.758-4.098c-3.644,1.637-5.698,0.323-6.147-3.586c-1.832,1.584-2.746,4.084-5.123,5.123
		c-1.928-0.122-1.998-2.101-2.562-3.586c-3.735,1.484-6.698,5.563-12.295,3.586c-0.562-1.487-0.462-3.636-1.024-5.123
		c-4.643-3.543-9.406,1.588-13.319-1.537c-2.475,0.599-4.453,1.695-6.147,3.074c-1.641-0.237-1.806-1.951-3.586-2.05
		c-5.639,3.433-14.87,5.65-19.979,0.513c0.111-2.279,2.674-2.107,3.586-3.586c-2.748-1.368-4.782,2.38-9.221,1.024
		c0.371-1.565-0.524-1.867-0.512-3.073c-3.778-1.896-8.223,1.509-10.758-0.513c0.083-0.596-0.113-0.912-0.512-1.024
		c-0.44-3.173,2.193-3.271,3.074-5.123c4.901,0.38,8.127-2.745,12.807-2.562c4.922,0.193,10.313,2.688,14.856-1.024
		c11.568-0.271,22.469-2.379,30.225-5.635c3.313,2.136,5.839-1.191,8.709-1.537c7.186-0.867,12.261,4.108,17.93,6.147
		c3.039-0.758,3.26-3.877,6.66-4.099c1.173-0.076,1.884,1.451,4.099,2.049c3.62,0.978,5.621,0.874,7.171,3.586
		c4.729,0.899,7.778-3.466,12.295-3.586c3.413-0.09,6.777,2.49,10.246,2.05c3.678-0.468,4.294-2.969,8.197-4.099
		c1.5,0.208,2.076,1.339,3.074,2.049c2.167,0.118,3.292-0.806,4.61-1.536c9.145,3.411,19.717-5.283,29.2-4.61
		c4.319,0.306,8.063,1.517,9.733-3.586c7.266-1.688,13.749,4.991,22.541,5.635c1.653,0.121,3.562-0.644,5.635-0.513
		c5.161,0.326,4.593,0.646,9.222-1.536c2.034-0.96,4.832-1.226,7.172-2.562c2.659-1.519,8.437-6.011,9.733,0
		c0.561,2.599-6.273,13.901-9.222,15.368C605.519,715.466,603.07,714.64,602.737,715.577z"/>
	<path fill-rule="evenodd" clip-rule="evenodd" fill="#FFFFFF" d="M514.136,247.46c2.458-0.095,4.413,0.453,6.256,2.283
		c-5.767,7.067-10.755,15.81-16.524,22.873C504.983,265.793,510.316,254.099,514.136,247.46z"/>
	<path fill-rule="evenodd" clip-rule="evenodd" d="M532.5,405.5c-11.927,11.075,22.954,55.163,27.261,69.643
		c0.562,1.89-0.067,3.85,0.65,5.69c1.352,3.47,4.721,6.437,6.205,9.898c5.944,13.872,5.244,28.527,2.927,45.783
		c1.797,3.292,5.5,5.697,8.351,8.499c9.239-1.608,12.557-15.942,18.976-23.612c-0.933-3.295-3.369-5.891-4.278-9.196
		c0.883-16.859,23.816-15.929,24.686-1.899c2.248,0.282,6.023-1.263,9.847,1.411c1.13,0.79,1.375,3.178,3.584,5.124
		c1.703,1.501,4.335,1.834,5.424,3.07c1.059,1.201,0.427,3.313,1.788,5.561c2.369,3.909,7.336,6.589,4.188,12.435
		c-1.677,3.112-4.65,2.517-7.576,4.324c-6.945,14.553-27.957,24.036-38.948,36.505c-5.831,6.613-11.395,14.281-20.759,12.057
		c-8.836-2.099-10.03-8.445-12.721-14.457c-3.208-1.17-6.417-2.341-9.625-3.512c-4.498,2.468-6.668,8.289-10.08,12.682
		c-3.221,4.147-6.778,8.241-10.821,10.23c-3.914,4.469-7.164,10.363-13.404,9.833c-2.44-0.596,0.17-3.542-0.344-5.033
		c-12.689,6.504-23.112,17.875-37.226,21.318c-2.29-1.332-1.394-4.146-0.123-7.135c-5.276,0.061-11.254,6.001-16.239,1.165
		c0.884-4.683,4.099-4.356,6.178-6.472c0.633-3.375,1.654-6.13,4.253-7.173c-6.807-2.991-19.935,3.019-27.66-1.911
		c-0.183-6.236,6.044-5.812,8.676-8.832c-6.359-2.053-15.194-5.824-19.815-9.957c-0.342-2.929,0.829-4.314,3.375-4.767
		c-6.413-7.753-14.405,6.286-18.729-2.472c2.062-3.295,5.534-3.561,7.187-7.738c-1.346-1.707-4.144-2.772-6.562-2.939
		c-12.37,8.906-24.622,18.066-40.724,18.951c-14.347-1.312-20.424-11.246-23.744-20.115c1.673-6.01-3.743-8.884-0.683-16.062
		c3.015-7.072,13.094-10.418,19.875-3.655c1.597,1.593,0.221,3.975,4.722,4.995c2.111,0.478,7.906-2.821,10.509-4.891
		c8.025-6.38,15.562-18.753,23.835-23.479c2.88-1.645,8.673-3.884,11.602-3.401c8.654,1.426,8.603,9.438,11.628,12.969
		c6.68-1.625,12.668-7.175,15.159-14.646c0.792-2.373,0.069-5.074,1.015-7.265c0.89-2.06,2.707-2.993,3.856-4.591
		c5.038-7.001,10.056-13.483,16.694-17.358c3.6-18.056,1.989-33.688-4.677-46.967c-11.669-4.309-22.854-16.459-33.336-13.254
		c-9.588,2.933-20.081,11.416-26.501,20.324c10.348,1.947,13.518,9.695,17.053,16.037c-4.101,9.16,2.346,13.369-1.729,21.181
		c-2.62,5.021-8.258,5.841-13.358,8.215c-2.375,1.104-4.169,3.257-5.781,3.889c-3.962,1.55-9.114,0.842-12.084,3.227
		c-28.408-8.576-24.33-35.931-11.837-63.214c10.025-21.89,34.417-35.767,47.663-40.958c-8.034-11.012-16.335-22.274-19.394-36.523
		c-0.813-3.789-2.396-7.451-2.79-10.288c-1.241-8.948,1.007-20.737,3.492-31.99c1.564-7.086,2.938-15.042,6.282-21.701
		c8.375-16.679,22.417-25.229,34.09-36.641c5.116-0.42,9.022-4.977,14.145-7.382c4.318-2.027,10.037-3.355,14.886-4.929
		c11.995-3.894,35.756-10.267,46.694,5.039c-6.582,11.558-18.009,21.085-20.609,35.561c14.884,6.72,25.688,15.338,28.048,27.886
		c0.074,0.396-4.668-2.132,0.024,6.908c5.584,10.757-0.601,26.389,1.084,33.218c2.2,8.916,7.5,2.44,10.75,14.878
		C547,367.589,539.5,399,532.5,405.5z M592.589,391.145 M503.868,272.616c5.77-7.062,10.757-15.805,16.524-22.873
		c-1.844-1.83-3.798-2.378-6.256-2.283C510.316,254.099,504.983,265.793,503.868,272.616z M501.884,245.172
		c-28.34,2.678-58.819,21.113-75.503,45.524c-3.135,4.587-6.113,12.043-7.284,16.974c-4.488,18.896-6.524,32.071-3.29,47.878
		c5.667,13.214,10.951,28.727,24.733,36.834c-0.687-4.341-2.532-8.144-1.737-13.176c-5.36-6.349-12.073-14.02-7.765-23.555
		c8.781-2.891,20.441,1.33,30.631,5.722c-6.926-11.296-7.53-36.732,5.917-49.1c2.416-2.222,9.815-6.237,14.801-7.688
		c9.393-2.731,18.174,2.781,25.246,7.03c3.153-7.819,9.19-9.443,15.374-10.75c-4.767-4.498-10.602-7.946-17.715-9.735
		c-1.114,3.091-0.969,3.594-2.283,6.256c-3.064-0.68-6.773,0.246-9.189-1.716c-2.203-14.921,7.87-34.211,13.708-49.53
		C505.397,245.599,503.392,245.029,501.884,245.172z M525.447,352.47c1.681-8.873,3.67-19.682-2.25-23.724
		c-2.647,2.631-0.395,8.458-5.086,7.96c-0.871-1.326-2.185-2.446-2.315-4.117c1.351-9.183,9.389-10.988,15.062-5.411
		c0.022,3.223,1.664,6.389,1.828,9.937c0.118,2.569-1.661,6.107,0.911,7.966c3.649-9.17-1.611-17.619-3.168-25.694
		c-5.902,2.253-6.248-6.089-12.994-4.741c0.136-0.729-0.497-1.101-0.436-1.795c1.303-3.495,4.261-3.436,6.919-4.019
		c-7.398-5.162-10.406,6.146-14.717,10.444c-2.836,0.487-5.096-2.302-7.524-3.291c-0.64,2.06-1.295,4.087-3.024,3.805
		c-1.925-0.702-3.85-1.404-5.775-2.107c-7.532-0.16-8.616,13.539-16.558,12.5c-1.706-3.986,5.049-12.49,9.033-15.79
		c2.146-1.778,5.548-1.574,5.125-3.583c-9.38-1.554-15.475,3.951-21.806,8.949c-6.56,14.002-7.75,24.563-3.889,34.572
		c2.252,5.839,11.809,15.43,0.248,14.268c-1.444,1.19-1.888,4.528-4.162,3.935c-3.344-2.04-3.86-5.396-7.082-7.492
		c3.18,2.776,1.66,10.362-3.902,6.211c-0.649,3.185-2.097,4.653-4.338,4.416c2.804,3.623,13.393,3.622,13.865,8.331
		c-3.421,4.758-8.845-0.093-14.879-1.066c-2.403,12.193,13.54,14.503,25.714,19.198c6.595,2.543,14.176,4.675,19.556,7.68
		c3.156,1.763,4.899,5.749,7.739,7.186c8.25,4.176,23.224,1.199,25.961-6.887c4.685-0.235,1.734-0.091,6.986-0.336 M530.49,409.774
		c-4.079,0.194-2.948,0.124-6.986,0.336c0.117-4.05,5.782-7.791,9.407-13.473c1.81-0.688,3.931-9.95,6.155-9.75
		c4.104-4.053,3.725-13.507,3.785-19.341c-2.811-4.286-6.423-8.198-9.046-12.571c-2.71,0.188-4.651-0.549-8.357-2.504
		 M437.073,360.035c-2.716,5.939,2.329,11.328,7.03,15.107c-0.455-2.052-0.7-4.203-0.299-6.653
		c-2.681-0.883-3.875-2.459-3.759-4.644c2.096-2.377,8.019-1.072,9.762-1.346C445.251,361.01,440.946,360.057,437.073,360.035z
		 M508.345,424.755c3.737,2.065,4.806,3.16,8.617,4.78c1.946-2.399,6.774,1.393,8.012-2.53
		C522.963,418.511,513.571,423.062,508.345,424.755z M489.927,416.945c-3.27-3.368-9.967-3.761-15.4-5.619
		c-4.813-1.645-6.816-3.922-10.542-5.482c-10.609-4.441-24.19-8.829-32.381-6.906c-5.815,1.365-12.278,6.153-16.466,9.261
		c-10.561,7.838-20.086,14.659-27.561,29.208c1.428,5.014,8.084,7.096,12.948,6.359c5.86-0.887,8.149-7.388,12.968-11.627
		c5.025-4.423,11.618-6.115,13.403-9.834c5.658-0.805,11.528-5.628,19.218-3.35c7.045,2.088,16.198,7.789,23.49,11.842
		c7.819,4.348,14.105,11.839,15.563,17.13c-1.134,0.997-2.556,1.378-3.941,1.835c-0.269,3.587,0.45,6.715,1.346,9.761
		c1.318,7.644-1.165,17.057-1.034,25.253c22.302-5.02,44.849-9.516,72.22-3.644c-0.236-12.003-7.798-21.942-11.258-31.918
		c-5.522-5.421-6.773-12.829-13.111-17.871c-4.939,3.534-11.3,0.864-16.59,2.128c-5.345-3.646-5.833-7.214-12.681-10.081
		C493.335,426.783,492.419,419.513,489.927,416.945z M611.587,510.956c-0.845-5.16-10.23-9.164-12.428-1.808
		c2.053,2.111,5.443,0.467,8.838,2.68c3.858,3.358,0.728,7.925-3.031,9.8c6.442,3.505-1.495,8.287-5.17,5.203
		c-4.402,7.138-8.159,15.665-13.546,20.687c7.038,1.378,8.902,13.835,1.256,13.001c-2.063-0.226-3.625-2.907-7.128-5.872
		c-2.558-2.167-6.098-3.904-8.266-5.743c-8.298-7.041-11.743-14.973-19.191-20.634c-0.224-1.251-2.409,0.478-3.72-0.267
		c-1.306-1.391-0.799-3.624-1.964-5.08c-1.074,0.555-2.546,0.252-4.201-0.442c-2.782,8.838-17.599,4.271-16.935-2.906
		c0.674-7.298,8.259-7.279,13.052-8.871c-5.927-2.72-10.035-1.53-14.398-0.891c-5.506-4.115-9.971-2.53-15.536-0.761
		c-11.616,3.694-22.181,12.246-30.221,20.057c-4.341,6.913-9.099,14.246-10.223,23.536c14.995,11.313,33.041,3.812,44.6-1.178
		c3.364-1.452,7.472-1.973,9.982-3.446c2.386-1.401,1.73-3.477,4.468-3.278c5.169,0.374,8.149,7.099,11.674,11.348
		c6.548,7.895,22.888,15.741,34.383,16.363c1.275,1.004,1.527,2.485,3.805,3.023c2.287,0.007,6.436-2.052,7.746,1.19
		c-1.947,3.588-5.792,5.947-9.546,5.241c-1.993-0.375-3.447-3.419-5.293-1.932c11.386,11.825,21.892-5.999,30.521-13.404
		c10.335-8.87,24.638-17.093,31.195-31.697c1.152-1.242,3.47,0.016,4.116-2.315c-2.233-0.506-3.821,0.372-6.302-0.663
		c0.217-1.033-0.957-1.419-0.74-2.452c0.507-2.842,3.452-2.874,1.932-5.293c-3.76-1.493-4.188,4.165-8.013,2.53
		c-3.084-1.762,0.256-6.513,0.272-9.717c-1.123-0.409-2.246-0.819-3.369-1.229c-2.707,1.646-1.102,4.705-3.114,7.043
		C610.47,523.896,610.028,516.204,611.587,510.956z M482.196,565.177c-7.503-2.675-11.925,1.277-19.562-1.685
		c-1.075-1.098-0.256-3.077-1.833-3.941c-1.774,1.624-3.42,3.528-6.087,3.232c-0.882-7.064,6.861-12.424,10.262-19.158
		c1.612-3.192,2.019-7.022,3.688-10.106c2.904-5.367,7.802-8.224,10.255-13.163c-1.099-1.486-3.697-2.275-3.277-4.469
		c5.007-3.78,12.65-7.529,21.019-9.78c9.926-2.671,20.65-6.517,30.598-4.65c2.624,0.491,5.599,2.063,8.838,2.679
		c3.459,0.658,7.486,0.133,10.327,1.587c2.522,1.29,3.259,5.023,6.165,5.521c2.05-4.683-3.177-5.979-0.338-11.03
		c6.226-1.165,5.513,6.737,6.51,10.556c2.31,0.099,3.854-1.45,6.042-1.613c-1.426-4.803,0.04-14.548-5.366-16.682
		c-2.363-0.932-6.6,1.091-8.929,0.56c-6.381-1.452-9.901-3.535-16.103-3.692c-3.738-0.096-7.605-0.702-10.678-0.625
		c-3.64,0.091-7.971,2.358-12.083,3.226c-5.04,1.063-10.302,3.533-14.619,1.21c2.043-5.052,6.568-4.773,10.073-6.686
		c-13-0.46-21.536,8.67-31.834,14.015c-1.6-0.188-1.112-1.347-2.711-1.533c-4.901,6.066-9.724,12.303-13.241,21.343
		c4.742,2.921,2.374,5.648,0.384,9.411c-3.301,6.242-6.285,14.367-10.965,21.084c-3.943,5.659-9.4,9.644-10.958,15.088
		c6.119,0.844,8.743-5.825,15.803-2.96c0.46,3.76-2.792,4.902-4.253,7.174c6.32,4.33,15.435-4.282,20.655,3.173
		c-1.972,5.492-8.467,1.266-11.166,5.197c5.617,1.477,10.621-2.928,16.018,0.936c-1.444,7.539-11.742,3.346-16.856,5.847
		c8.867,2.74,15.607,0.912,22.541-0.501c2.242,7.996-9.468,6.691-13.097,10.49c3.227-0.278,6.388,0.584,9.234,0.098
		c7.639-1.306,13.787-7.127,22.066-6.673c0.245,0.817,0.956,1.42,0.741,2.452c-4.748,6.396-12.975,5.315-15.991,15.433
		c8.783-3.025,17.471-9.25,25.05-14.854c4.43-3.275,8.52-11.937,14.366-9.482c-0.808,5.356-5.648,8.101-8.591,11.59
		c0.714,1.24,5.215-1.662,6.393-2.576c6.518-5.054,12.742-15.352,19.367-20.199c1.797-0.899,2.938,2.129,4.201,0.442
		c1.78-2.269-1.335-5.426-5.333-6.309c-3.821-3.479-5.375-10.956-10.185-12.44c-2.122-0.655-7.798,1.723-11.121,3.577
		c-5.923,3.305-10.259,8.25-14.151,13.377c-5.192,0.862-7.985,6.882-14.405,5.106c-2.003-0.533,0.271-3.057-2.009-3.461
		c-2.377,0.824-8.542,1.576-9.496-2.373C478.136,566.155,482.324,566.63,482.196,565.177z M508.059,486.817
		c0.833-1.356,2.932,0.004,3.766-1.354C510.25,484.705,507.254,485.308,508.059,486.817z M415.659,453.104
		c-6.374-3.839-9.493,0.683-12.87,2.394c-5.176,2.623-10.605,1.469-18.118-1.157c-6.101,2.618-5.247,19.504-3.921,24.198
		c4.343,15.383,22.786,14.014,31.815,3.974c2.149,0.611,3.573-0.336,5.515-0.169c1.721-2.329,4.073-4.345,3.29-7.524
		c-1.978-1.103-2.646,0.608-4.376,0.04c-1.406-5.605-7.925-8.832-4.228-16.812c5.807-1.929,3.855,4.948,6.12,7.14
		C423.106,461.416,417.065,456.787,415.659,453.104z M560.275,526.044c0.813-4.64-0.06-8.495-0.95-12.343
		C559.443,517.908,556.587,523.499,560.275,526.044z M437.407,538.475c1.592,0.558,2.693,0.061,4.507,1.099
		c0.434,1.93-0.234,4.371,2.445,5.255c3.131-2.144,4.444-8.195,6.36-12.948C446.106,530.34,441.377,535.787,437.407,538.475z
		 M420.967,523.751c-14.731,4.259-28.157,39.841-50.362,27.432c-1.001-1.822,1.129-2.632,0.618-4.683
		c-2.981-1.255-5.79-2.139-7.746-1.189c-6.693,9.03,2.46,12.919,9.742,16.643c-0.489,3.24-2.821,2.522-4.162,3.934
		c2.375,1.824,1.262,3.181-0.312,5.339c3.43,5.354,12.697,6.28,18.99,4.748c9.376-2.284,15.287-7.271,22.554-12.493
		c3.194-2.297,7.576-3.868,8.324-7.87c-0.518-2.289-3.459-3.45-2.575-6.393c2.082-2.108,5.465-1.42,8.012-2.529
		c-2.599-1.494-3.411-0.35-6.256-2.282c-0.318-1.317-0.709-2.601-0.04-4.378c5.048-2.029,10.892-2.352,14.626-7.205
		C430.791,527.129,428.026,521.709,420.967,523.751z"/>
	<path fill-rule="evenodd" clip-rule="evenodd" fill="#FFFFFF" d="M477.553,568.936c0.954,3.949,7.118,3.197,9.496,2.373
		c2.28,0.404,0.006,2.928,2.009,3.461c6.42,1.775,9.213-4.244,14.405-5.106c3.892-5.127,8.228-10.072,14.151-13.377
		c3.323-1.854,8.999-4.232,11.121-3.577c4.81,1.484,6.363,8.962,10.185,12.44c3.998,0.883,7.113,4.04,5.333,6.309
		c-1.264,1.687-2.404-1.342-4.201-0.442c-6.625,4.848-12.849,15.146-19.367,20.199c-1.178,0.914-5.679,3.816-6.393,2.576
		c2.942-3.489,7.783-6.233,8.591-11.59c-5.846-2.454-9.936,6.207-14.366,9.482c-7.579,5.604-16.268,11.829-25.05,14.854
		c3.016-10.117,11.244-9.036,15.991-15.433c0.215-1.032-0.496-1.635-0.741-2.452c-8.279-0.454-14.427,5.367-22.066,6.673
		c-2.846,0.486-6.008-0.376-9.234-0.098c3.629-3.799,15.339-2.494,13.097-10.49c-6.933,1.413-13.674,3.241-22.541,0.501
		c5.114-2.501,15.413,1.692,16.856-5.847c-5.396-3.863-10.4,0.541-16.018-0.936c2.699-3.932,9.194,0.295,11.166-5.197
		c-5.22-7.455-14.334,1.157-20.655-3.173c1.461-2.271,4.713-3.414,4.253-7.174c-7.06-2.865-9.684,3.804-15.803,2.96
		c1.558-5.444,7.015-9.429,10.958-15.088c4.68-6.717,7.664-14.842,10.965-21.084c1.99-3.763,4.358-6.49-0.384-9.411
		c3.517-9.04,8.339-15.276,13.241-21.343c1.599,0.187,1.112,1.346,2.711,1.533c10.298-5.345,18.834-14.475,31.834-14.015
		c-3.505,1.912-8.03,1.634-10.073,6.686c4.317,2.323,9.579-0.146,14.619-1.21c4.112-0.867,8.444-3.135,12.083-3.226
		c3.073-0.077,6.94,0.529,10.678,0.625c6.201,0.157,9.722,2.24,16.103,3.692c2.329,0.531,6.566-1.491,8.929-0.56
		c5.405,2.134,3.939,11.879,5.366,16.682c-2.188,0.163-3.732,1.712-6.042,1.613c-0.997-3.818-0.284-11.721-6.51-10.556
		c-2.839,5.051,2.388,6.348,0.338,11.03c-2.906-0.498-3.643-4.231-6.165-5.521c-2.841-1.454-6.868-0.929-10.327-1.587
		c-3.239-0.615-6.215-2.188-8.838-2.679c-9.948-1.866-20.672,1.979-30.598,4.65c-8.369,2.251-16.012,6-21.019,9.78
		c-0.419,2.193,2.179,2.982,3.277,4.469c-2.453,4.939-7.352,7.796-10.255,13.163c-1.669,3.084-2.076,6.914-3.688,10.106
		c-3.4,6.734-11.144,12.094-10.262,19.158c2.667,0.296,4.312-1.608,6.087-3.232c1.577,0.864,0.759,2.844,1.833,3.941
		c7.638,2.962,12.059-0.99,19.562,1.685C482.324,566.63,478.136,566.155,477.553,568.936z"/>
</g>
<path fill-rule="evenodd" clip-rule="evenodd" d="M494.767,378.22c-1.033,4.208-3.936,3.792-6.101,5.203
	c-6.121,8.982,7.241,19.535,16.898,20.517c9.369,0.953,12.214-6.966,13.457-15.995c0.993,0.521,1.665,0.25,2.015-0.815
	c3.261,1.807,2.594,5.203,1.917,8.602c0.199,2.004,2.882,3.002,2.846,5.102c-3.512,7.563-11.569,10.041-20.476,10.238
	c-5.549,0.123-10.051,1.149-10.648-5.07c-5.462-3.208-11.057-8.021-13.037-13.873C479.216,384.973,485.53,372.546,494.767,378.22z"
	/>
<path fill-rule="evenodd" clip-rule="evenodd" d="M496.332,377.138c-0.459,2.6-3.215,1.798-5.064,2.34
	c-4.631,4.84,9.085,14.258,18.203,16.662c8.847,2.333,10.552-2.398,10.631-8.156c0.988,0.526,1.582,0.468,1.781-0.174
	c3.255,1.79,3.041,3.918,2.815,6.048c0.425,1.364,3.046,2.512,3.263,3.896c-2.369,4.374-9.584,4.553-17.862,3.067
	c-5.157-0.926-9.231-1.063-10.531-5.292c-5.475-3.117-11.265-7.322-13.811-11.559C482.644,378.79,487.044,371.702,496.332,377.138z"
	/>
<path fill-rule="evenodd" clip-rule="evenodd" d="M521.279,341.613c0.21-1.271-0.354-2.182,0.582-3.791
	c1.38-0.869,3.75-0.122,4.723,1.322C526.096,342.862,523.725,343.964,521.279,341.613z"/>
<path fill-rule="evenodd" clip-rule="evenodd" fill="none" stroke="#000000" stroke-width="4" stroke-miterlimit="10" d="
	M542.956,441.139c6.077-0.285,11.286-10.894,15.585-17.514c3.67-5.65,13.562-24.772,16.29-31.57
	c2.948-7.348,5.425-24.531,7.089-32.779c1.911-9.479,4.654-34.95,9.091-42.15c2.57-4.171,3.728-2.121,7.739-5.875
	c2.266-2.119,7.584-10.251,9.299-12.137c0.703-0.773,4.52-3.64,8.755-6.976c6.103-4.804,13.075-10.581,12.863-12.47
	c-0.076-0.685,1.345-5.75-1.917-4.417c-4.351,1.777-14.033,10.364-17.75,11.75c-2.452,0.915,4.616-3.023,7.5-8
	c1.778-3.069,7.079-8.472,7.25-9.25c2.023-9.214-1.381-8.339-6-4.25c-3.015,2.67-5.994,5.507-9.014,9.149
	c-3.886,4.688-10.429,9.379-10.095,8.652c1.495-3.251,4.482-8.548,7.116-13.268c2.981-5.34,5.51-9.941,4.909-10
	c-0.813-0.081-3.807,0.748-7.146,2.489c-5.902,3.076-12.89,9.004-10.854,17.812c0.56,2.421-3.035,9.858-5.254,8.292
	c-3.316-2.342-5.23-8.083-8.767-9.467c-3.524-1.38-13.087,3.71-13.233,9.306c-0.044,1.681,2.76,2.854,3.817,3.277
	c1.729,0.692,5.501-1.079,7.144,0c1.941,1.275,5.659,6.146,5.845,9.384c0.141,2.465-2.762,6.094-3.572,8.231
	c-1.905,5.024-5.22,15.497-6.818,20.769c-1.72,5.67-4.035,17.928-6.415,23c-2.683,5.718-10.399,13.846-13.717,18.711
	c-4.297,6.303-13.059,18.803-16.588,26.15c-2.508,5.222-8.815,16.402-8.089,22.801C528.879,428.35,537.973,441.373,542.956,441.139z
	"/>
<path fill="none" stroke="#000000" stroke-width="3.2234" stroke-miterlimit="10" d="M579.646,309.356
	c0,6.284,4.357,11.368,9.741,11.368"/>
<path fill="none" stroke="#000000" stroke-width="3.2234" stroke-miterlimit="10" d="M577.046,316.829
	c0,5.746,4.696,10.395,10.499,10.395"/>
</svg>
